%TF.GenerationSoftware,KiCad,Pcbnew,(6.0.4)*%
%TF.CreationDate,2022-08-04T23:26:19+09:00*%
%TF.ProjectId,ATMega328_breakout,41544d65-6761-4333-9238-5f627265616b,rev?*%
%TF.SameCoordinates,Original*%
%TF.FileFunction,Soldermask,Top*%
%TF.FilePolarity,Negative*%
%FSLAX46Y46*%
G04 Gerber Fmt 4.6, Leading zero omitted, Abs format (unit mm)*
G04 Created by KiCad (PCBNEW (6.0.4)) date 2022-08-04 23:26:19*
%MOMM*%
%LPD*%
G01*
G04 APERTURE LIST*
G04 Aperture macros list*
%AMRotRect*
0 Rectangle, with rotation*
0 The origin of the aperture is its center*
0 $1 length*
0 $2 width*
0 $3 Rotation angle, in degrees counterclockwise*
0 Add horizontal line*
21,1,$1,$2,0,0,$3*%
G04 Aperture macros list end*
%ADD10R,1.150000X1.150000*%
%ADD11C,1.150000*%
%ADD12RotRect,0.600000X1.475000X135.000000*%
%ADD13RotRect,0.600000X1.475000X45.000000*%
G04 APERTURE END LIST*
D10*
%TO.C,J1*%
X116100000Y-89300000D03*
D11*
X113560000Y-89300000D03*
X111020000Y-89300000D03*
X108480000Y-89300000D03*
X105940000Y-89300000D03*
X103400000Y-89300000D03*
X100860000Y-89300000D03*
X98320000Y-89300000D03*
%TD*%
D12*
%TO.C,IC1*%
X112923382Y-79116820D03*
X113489068Y-79682505D03*
X114054753Y-80248190D03*
X114620439Y-80813876D03*
X115186124Y-81379561D03*
X115751810Y-81945247D03*
X116317495Y-82510932D03*
X116883180Y-83076618D03*
D13*
X118916820Y-83076618D03*
X119482505Y-82510932D03*
X120048190Y-81945247D03*
X120613876Y-81379561D03*
X121179561Y-80813876D03*
X121745247Y-80248190D03*
X122310932Y-79682505D03*
X122876618Y-79116820D03*
D12*
X122876618Y-77083180D03*
X122310932Y-76517495D03*
X121745247Y-75951810D03*
X121179561Y-75386124D03*
X120613876Y-74820439D03*
X120048190Y-74254753D03*
X119482505Y-73689068D03*
X118916820Y-73123382D03*
D13*
X116883180Y-73123382D03*
X116317495Y-73689068D03*
X115751810Y-74254753D03*
X115186124Y-74820439D03*
X114620439Y-75386124D03*
X114054753Y-75951810D03*
X113489068Y-76517495D03*
X112923382Y-77083180D03*
%TD*%
D10*
%TO.C,J3*%
X137490000Y-89300000D03*
D11*
X134950000Y-89300000D03*
X132410000Y-89300000D03*
X129870000Y-89300000D03*
X127330000Y-89300000D03*
X124790000Y-89300000D03*
X122250000Y-89300000D03*
X119710000Y-89300000D03*
%TD*%
D10*
%TO.C,J4*%
X119800000Y-66700000D03*
D11*
X122340000Y-66700000D03*
X124880000Y-66700000D03*
X127420000Y-66700000D03*
X129960000Y-66700000D03*
X132500000Y-66700000D03*
X135040000Y-66700000D03*
X137580000Y-66700000D03*
%TD*%
D10*
%TO.C,J2*%
X98210000Y-66700000D03*
D11*
X100750000Y-66700000D03*
X103290000Y-66700000D03*
X105830000Y-66700000D03*
X108370000Y-66700000D03*
X110910000Y-66700000D03*
X113450000Y-66700000D03*
X115990000Y-66700000D03*
%TD*%
M02*
