M48
; DRILL file {KiCad (6.0.4)} date Thu Aug  4 23:26:22 2022
; FORMAT={-:-/ absolute / inch / decimal}
; #@! TF.CreationDate,2022-08-04T23:26:22+09:00
; #@! TF.GenerationSoftware,Kicad,Pcbnew,(6.0.4)
; #@! TF.FileFunction,Plated,1,2,PTH
FMAT,2
INCH
; #@! TA.AperFunction,Plated,PTH,ComponentDrill
T1C0.0295
; #@! TA.AperFunction,Plated,PTH,ViaDrill
T2C0.0787
%
G90
G05
T1
X3.8665Y-2.626
X3.8709Y-3.5157
X3.9665Y-2.626
X3.9709Y-3.5157
X4.0665Y-2.626
X4.0709Y-3.5157
X4.1665Y-2.626
X4.1709Y-3.5157
X4.2665Y-2.626
X4.2709Y-3.5157
X4.3665Y-2.626
X4.3709Y-3.5157
X4.4665Y-2.626
X4.4709Y-3.5157
X4.5665Y-2.626
X4.5709Y-3.5157
X4.713Y-3.5157
X4.7165Y-2.626
X4.813Y-3.5157
X4.8165Y-2.626
X4.913Y-3.5157
X4.9165Y-2.626
X5.013Y-3.5157
X5.0165Y-2.626
X5.113Y-3.5157
X5.1165Y-2.626
X5.213Y-3.5157
X5.2165Y-2.626
X5.313Y-3.5157
X5.3165Y-2.626
X5.413Y-3.5157
X5.4165Y-2.626
T2
X3.7283Y-2.5512
X3.7323Y-3.5827
X5.5551Y-2.5512
X5.5551Y-3.5866
T0
M30
