%TF.GenerationSoftware,KiCad,Pcbnew,(6.0.4)*%
%TF.CreationDate,2022-08-04T23:26:19+09:00*%
%TF.ProjectId,ATMega328_breakout,41544d65-6761-4333-9238-5f627265616b,rev?*%
%TF.SameCoordinates,Original*%
%TF.FileFunction,Copper,L2,Bot*%
%TF.FilePolarity,Positive*%
%FSLAX46Y46*%
G04 Gerber Fmt 4.6, Leading zero omitted, Abs format (unit mm)*
G04 Created by KiCad (PCBNEW (6.0.4)) date 2022-08-04 23:26:19*
%MOMM*%
%LPD*%
G01*
G04 APERTURE LIST*
%TA.AperFunction,ComponentPad*%
%ADD10R,1.150000X1.150000*%
%TD*%
%TA.AperFunction,ComponentPad*%
%ADD11C,1.150000*%
%TD*%
%TA.AperFunction,ViaPad*%
%ADD12C,2.500000*%
%TD*%
G04 APERTURE END LIST*
D10*
%TO.P,J1,1,1*%
%TO.N,Net-(IC1-Pad8)*%
X116100000Y-89300000D03*
D11*
%TO.P,J1,2,2*%
%TO.N,Net-(IC1-Pad7)*%
X113560000Y-89300000D03*
%TO.P,J1,3,3*%
%TO.N,Net-(IC1-Pad6)*%
X111020000Y-89300000D03*
%TO.P,J1,4,4*%
%TO.N,GND*%
X108480000Y-89300000D03*
%TO.P,J1,5,5*%
%TO.N,VCC*%
X105940000Y-89300000D03*
%TO.P,J1,6,6*%
%TO.N,Net-(IC1-Pad3)*%
X103400000Y-89300000D03*
%TO.P,J1,7,7*%
%TO.N,Net-(IC1-Pad2)*%
X100860000Y-89300000D03*
%TO.P,J1,8,8*%
%TO.N,Net-(IC1-Pad1)*%
X98320000Y-89300000D03*
%TD*%
D10*
%TO.P,J3,1,1*%
%TO.N,Net-(IC1-Pad16)*%
X137490000Y-89300000D03*
D11*
%TO.P,J3,2,2*%
%TO.N,Net-(IC1-Pad15)*%
X134950000Y-89300000D03*
%TO.P,J3,3,3*%
%TO.N,Net-(IC1-Pad14)*%
X132410000Y-89300000D03*
%TO.P,J3,4,4*%
%TO.N,Net-(IC1-Pad13)*%
X129870000Y-89300000D03*
%TO.P,J3,5,5*%
%TO.N,Net-(IC1-Pad12)*%
X127330000Y-89300000D03*
%TO.P,J3,6,6*%
%TO.N,Net-(IC1-Pad11)*%
X124790000Y-89300000D03*
%TO.P,J3,7,7*%
%TO.N,Net-(IC1-Pad10)*%
X122250000Y-89300000D03*
%TO.P,J3,8,8*%
%TO.N,Net-(IC1-Pad9)*%
X119710000Y-89300000D03*
%TD*%
D10*
%TO.P,J4,1,1*%
%TO.N,Net-(IC1-Pad24)*%
X119800000Y-66700000D03*
D11*
%TO.P,J4,2,2*%
%TO.N,Net-(IC1-Pad23)*%
X122340000Y-66700000D03*
%TO.P,J4,3,3*%
%TO.N,Net-(IC1-Pad22)*%
X124880000Y-66700000D03*
%TO.P,J4,4,4*%
%TO.N,GND*%
X127420000Y-66700000D03*
%TO.P,J4,5,5*%
%TO.N,Net-(IC1-Pad20)*%
X129960000Y-66700000D03*
%TO.P,J4,6,6*%
%TO.N,Net-(IC1-Pad19)*%
X132500000Y-66700000D03*
%TO.P,J4,7,7*%
%TO.N,Net-(IC1-Pad18)*%
X135040000Y-66700000D03*
%TO.P,J4,8,8*%
%TO.N,Net-(IC1-Pad17)*%
X137580000Y-66700000D03*
%TD*%
D10*
%TO.P,J2,1,1*%
%TO.N,Net-(IC1-Pad32)*%
X98210000Y-66700000D03*
D11*
%TO.P,J2,2,2*%
%TO.N,Net-(IC1-Pad31)*%
X100750000Y-66700000D03*
%TO.P,J2,3,3*%
%TO.N,Net-(IC1-Pad30)*%
X103290000Y-66700000D03*
%TO.P,J2,4,4*%
%TO.N,Net-(IC1-Pad29)*%
X105830000Y-66700000D03*
%TO.P,J2,5,5*%
%TO.N,Net-(IC1-Pad28)*%
X108370000Y-66700000D03*
%TO.P,J2,6,6*%
%TO.N,Net-(IC1-Pad27)*%
X110910000Y-66700000D03*
%TO.P,J2,7,7*%
%TO.N,Net-(IC1-Pad26)*%
X113450000Y-66700000D03*
%TO.P,J2,8,8*%
%TO.N,Net-(IC1-Pad25)*%
X115990000Y-66700000D03*
%TD*%
D12*
%TO.N,GND*%
X94800000Y-91000000D03*
X94700000Y-64800000D03*
X141100000Y-64800000D03*
X141100000Y-91100000D03*
%TD*%
%TA.AperFunction,Conductor*%
%TO.N,GND*%
G36*
X142333621Y-63428502D02*
G01*
X142380114Y-63482158D01*
X142391500Y-63534500D01*
X142391500Y-92265500D01*
X142371498Y-92333621D01*
X142317842Y-92380114D01*
X142265500Y-92391500D01*
X93534500Y-92391500D01*
X93466379Y-92371498D01*
X93419886Y-92317842D01*
X93408500Y-92265500D01*
X93408500Y-89271516D01*
X97232231Y-89271516D01*
X97245255Y-89470223D01*
X97294272Y-89663229D01*
X97377641Y-89844071D01*
X97383708Y-89852656D01*
X97428709Y-89916330D01*
X97492570Y-90006692D01*
X97635210Y-90145645D01*
X97800784Y-90256278D01*
X97806087Y-90258556D01*
X97806090Y-90258558D01*
X97969506Y-90328767D01*
X97983746Y-90334885D01*
X98055276Y-90351071D01*
X98172332Y-90377558D01*
X98172337Y-90377559D01*
X98177969Y-90378833D01*
X98183740Y-90379060D01*
X98183742Y-90379060D01*
X98243969Y-90381426D01*
X98376949Y-90386651D01*
X98492506Y-90369896D01*
X98568300Y-90358907D01*
X98568304Y-90358906D01*
X98574022Y-90358077D01*
X98579494Y-90356219D01*
X98579496Y-90356219D01*
X98757119Y-90295923D01*
X98762587Y-90294067D01*
X98768448Y-90290785D01*
X98931291Y-90199588D01*
X98936330Y-90196766D01*
X98993938Y-90148855D01*
X99085001Y-90073119D01*
X99089433Y-90069433D01*
X99208282Y-89926531D01*
X99213077Y-89920766D01*
X99213079Y-89920764D01*
X99216766Y-89916330D01*
X99314067Y-89742587D01*
X99378077Y-89554022D01*
X99378923Y-89548191D01*
X99406118Y-89360623D01*
X99406651Y-89356949D01*
X99408142Y-89300000D01*
X99405525Y-89271516D01*
X99772231Y-89271516D01*
X99785255Y-89470223D01*
X99834272Y-89663229D01*
X99917641Y-89844071D01*
X99923708Y-89852656D01*
X99968709Y-89916330D01*
X100032570Y-90006692D01*
X100175210Y-90145645D01*
X100340784Y-90256278D01*
X100346087Y-90258556D01*
X100346090Y-90258558D01*
X100509506Y-90328767D01*
X100523746Y-90334885D01*
X100595276Y-90351071D01*
X100712332Y-90377558D01*
X100712337Y-90377559D01*
X100717969Y-90378833D01*
X100723740Y-90379060D01*
X100723742Y-90379060D01*
X100783969Y-90381426D01*
X100916949Y-90386651D01*
X101032506Y-90369896D01*
X101108300Y-90358907D01*
X101108304Y-90358906D01*
X101114022Y-90358077D01*
X101119494Y-90356219D01*
X101119496Y-90356219D01*
X101297119Y-90295923D01*
X101302587Y-90294067D01*
X101308448Y-90290785D01*
X101471291Y-90199588D01*
X101476330Y-90196766D01*
X101533938Y-90148855D01*
X101625001Y-90073119D01*
X101629433Y-90069433D01*
X101748282Y-89926531D01*
X101753077Y-89920766D01*
X101753079Y-89920764D01*
X101756766Y-89916330D01*
X101854067Y-89742587D01*
X101918077Y-89554022D01*
X101918923Y-89548191D01*
X101946118Y-89360623D01*
X101946651Y-89356949D01*
X101948142Y-89300000D01*
X101945525Y-89271516D01*
X102312231Y-89271516D01*
X102325255Y-89470223D01*
X102374272Y-89663229D01*
X102457641Y-89844071D01*
X102463708Y-89852656D01*
X102508709Y-89916330D01*
X102572570Y-90006692D01*
X102715210Y-90145645D01*
X102880784Y-90256278D01*
X102886087Y-90258556D01*
X102886090Y-90258558D01*
X103049506Y-90328767D01*
X103063746Y-90334885D01*
X103135276Y-90351071D01*
X103252332Y-90377558D01*
X103252337Y-90377559D01*
X103257969Y-90378833D01*
X103263740Y-90379060D01*
X103263742Y-90379060D01*
X103323969Y-90381426D01*
X103456949Y-90386651D01*
X103572506Y-90369896D01*
X103648300Y-90358907D01*
X103648304Y-90358906D01*
X103654022Y-90358077D01*
X103659494Y-90356219D01*
X103659496Y-90356219D01*
X103837119Y-90295923D01*
X103842587Y-90294067D01*
X103848448Y-90290785D01*
X104011291Y-90199588D01*
X104016330Y-90196766D01*
X104073938Y-90148855D01*
X104165001Y-90073119D01*
X104169433Y-90069433D01*
X104288282Y-89926531D01*
X104293077Y-89920766D01*
X104293079Y-89920764D01*
X104296766Y-89916330D01*
X104394067Y-89742587D01*
X104458077Y-89554022D01*
X104458923Y-89548191D01*
X104486118Y-89360623D01*
X104486651Y-89356949D01*
X104488142Y-89300000D01*
X104485525Y-89271516D01*
X104852231Y-89271516D01*
X104865255Y-89470223D01*
X104914272Y-89663229D01*
X104997641Y-89844071D01*
X105003708Y-89852656D01*
X105048709Y-89916330D01*
X105112570Y-90006692D01*
X105255210Y-90145645D01*
X105420784Y-90256278D01*
X105426087Y-90258556D01*
X105426090Y-90258558D01*
X105589506Y-90328767D01*
X105603746Y-90334885D01*
X105675276Y-90351071D01*
X105792332Y-90377558D01*
X105792337Y-90377559D01*
X105797969Y-90378833D01*
X105803740Y-90379060D01*
X105803742Y-90379060D01*
X105863969Y-90381426D01*
X105996949Y-90386651D01*
X106112506Y-90369896D01*
X106188300Y-90358907D01*
X106188304Y-90358906D01*
X106194022Y-90358077D01*
X106199494Y-90356219D01*
X106199496Y-90356219D01*
X106377119Y-90295923D01*
X106382587Y-90294067D01*
X106388448Y-90290785D01*
X106509004Y-90223270D01*
X107921091Y-90223270D01*
X107930971Y-90235757D01*
X107956222Y-90252629D01*
X107966330Y-90258117D01*
X108138598Y-90332129D01*
X108149531Y-90335681D01*
X108332398Y-90377060D01*
X108343807Y-90378562D01*
X108531155Y-90385922D01*
X108542637Y-90385320D01*
X108728191Y-90358417D01*
X108739374Y-90355732D01*
X108916911Y-90295467D01*
X108927426Y-90290785D01*
X109029662Y-90233530D01*
X109039526Y-90223452D01*
X109036571Y-90215781D01*
X108492812Y-89672022D01*
X108478868Y-89664408D01*
X108477035Y-89664539D01*
X108470420Y-89668790D01*
X107927287Y-90211923D01*
X107921091Y-90223270D01*
X106509004Y-90223270D01*
X106551291Y-90199588D01*
X106556330Y-90196766D01*
X106613938Y-90148855D01*
X106705001Y-90073119D01*
X106709433Y-90069433D01*
X106828282Y-89926531D01*
X106833077Y-89920766D01*
X106833079Y-89920764D01*
X106836766Y-89916330D01*
X106934067Y-89742587D01*
X106998077Y-89554022D01*
X106998923Y-89548191D01*
X107026118Y-89360623D01*
X107026651Y-89356949D01*
X107028142Y-89300000D01*
X107026056Y-89277295D01*
X107393111Y-89277295D01*
X107405373Y-89464376D01*
X107407174Y-89475746D01*
X107453323Y-89657462D01*
X107457164Y-89668308D01*
X107535658Y-89838574D01*
X107541410Y-89848538D01*
X107543725Y-89851813D01*
X107554314Y-89860203D01*
X107567616Y-89853174D01*
X108107978Y-89312812D01*
X108114356Y-89301132D01*
X108844408Y-89301132D01*
X108844539Y-89302965D01*
X108848790Y-89309580D01*
X109391866Y-89852656D01*
X109404246Y-89859416D01*
X109410826Y-89854490D01*
X109470785Y-89747426D01*
X109475467Y-89736911D01*
X109535732Y-89559374D01*
X109538417Y-89548191D01*
X109565616Y-89360597D01*
X109566246Y-89353214D01*
X109567543Y-89303704D01*
X109567300Y-89296305D01*
X109565022Y-89271516D01*
X109932231Y-89271516D01*
X109945255Y-89470223D01*
X109994272Y-89663229D01*
X110077641Y-89844071D01*
X110083708Y-89852656D01*
X110128709Y-89916330D01*
X110192570Y-90006692D01*
X110335210Y-90145645D01*
X110500784Y-90256278D01*
X110506087Y-90258556D01*
X110506090Y-90258558D01*
X110669506Y-90328767D01*
X110683746Y-90334885D01*
X110755276Y-90351071D01*
X110872332Y-90377558D01*
X110872337Y-90377559D01*
X110877969Y-90378833D01*
X110883740Y-90379060D01*
X110883742Y-90379060D01*
X110943969Y-90381426D01*
X111076949Y-90386651D01*
X111192506Y-90369896D01*
X111268300Y-90358907D01*
X111268304Y-90358906D01*
X111274022Y-90358077D01*
X111279494Y-90356219D01*
X111279496Y-90356219D01*
X111457119Y-90295923D01*
X111462587Y-90294067D01*
X111468448Y-90290785D01*
X111631291Y-90199588D01*
X111636330Y-90196766D01*
X111693938Y-90148855D01*
X111785001Y-90073119D01*
X111789433Y-90069433D01*
X111908282Y-89926531D01*
X111913077Y-89920766D01*
X111913079Y-89920764D01*
X111916766Y-89916330D01*
X112014067Y-89742587D01*
X112078077Y-89554022D01*
X112078923Y-89548191D01*
X112106118Y-89360623D01*
X112106651Y-89356949D01*
X112108142Y-89300000D01*
X112105525Y-89271516D01*
X112472231Y-89271516D01*
X112485255Y-89470223D01*
X112534272Y-89663229D01*
X112617641Y-89844071D01*
X112623708Y-89852656D01*
X112668709Y-89916330D01*
X112732570Y-90006692D01*
X112875210Y-90145645D01*
X113040784Y-90256278D01*
X113046087Y-90258556D01*
X113046090Y-90258558D01*
X113209506Y-90328767D01*
X113223746Y-90334885D01*
X113295276Y-90351071D01*
X113412332Y-90377558D01*
X113412337Y-90377559D01*
X113417969Y-90378833D01*
X113423740Y-90379060D01*
X113423742Y-90379060D01*
X113483969Y-90381426D01*
X113616949Y-90386651D01*
X113732506Y-90369896D01*
X113808300Y-90358907D01*
X113808304Y-90358906D01*
X113814022Y-90358077D01*
X113819494Y-90356219D01*
X113819496Y-90356219D01*
X113997119Y-90295923D01*
X114002587Y-90294067D01*
X114008448Y-90290785D01*
X114171291Y-90199588D01*
X114176330Y-90196766D01*
X114233938Y-90148855D01*
X114325001Y-90073119D01*
X114329433Y-90069433D01*
X114448282Y-89926531D01*
X114451107Y-89923134D01*
X115016500Y-89923134D01*
X115023255Y-89985316D01*
X115074385Y-90121705D01*
X115161739Y-90238261D01*
X115278295Y-90325615D01*
X115414684Y-90376745D01*
X115476866Y-90383500D01*
X116723134Y-90383500D01*
X116785316Y-90376745D01*
X116921705Y-90325615D01*
X117038261Y-90238261D01*
X117125615Y-90121705D01*
X117176745Y-89985316D01*
X117183500Y-89923134D01*
X117183500Y-89271516D01*
X118622231Y-89271516D01*
X118635255Y-89470223D01*
X118684272Y-89663229D01*
X118767641Y-89844071D01*
X118773708Y-89852656D01*
X118818709Y-89916330D01*
X118882570Y-90006692D01*
X119025210Y-90145645D01*
X119190784Y-90256278D01*
X119196087Y-90258556D01*
X119196090Y-90258558D01*
X119359506Y-90328767D01*
X119373746Y-90334885D01*
X119445276Y-90351071D01*
X119562332Y-90377558D01*
X119562337Y-90377559D01*
X119567969Y-90378833D01*
X119573740Y-90379060D01*
X119573742Y-90379060D01*
X119633969Y-90381426D01*
X119766949Y-90386651D01*
X119882506Y-90369896D01*
X119958300Y-90358907D01*
X119958304Y-90358906D01*
X119964022Y-90358077D01*
X119969494Y-90356219D01*
X119969496Y-90356219D01*
X120147119Y-90295923D01*
X120152587Y-90294067D01*
X120158448Y-90290785D01*
X120321291Y-90199588D01*
X120326330Y-90196766D01*
X120383938Y-90148855D01*
X120475001Y-90073119D01*
X120479433Y-90069433D01*
X120598282Y-89926531D01*
X120603077Y-89920766D01*
X120603079Y-89920764D01*
X120606766Y-89916330D01*
X120704067Y-89742587D01*
X120768077Y-89554022D01*
X120768923Y-89548191D01*
X120796118Y-89360623D01*
X120796651Y-89356949D01*
X120798142Y-89300000D01*
X120795525Y-89271516D01*
X121162231Y-89271516D01*
X121175255Y-89470223D01*
X121224272Y-89663229D01*
X121307641Y-89844071D01*
X121313708Y-89852656D01*
X121358709Y-89916330D01*
X121422570Y-90006692D01*
X121565210Y-90145645D01*
X121730784Y-90256278D01*
X121736087Y-90258556D01*
X121736090Y-90258558D01*
X121899506Y-90328767D01*
X121913746Y-90334885D01*
X121985276Y-90351071D01*
X122102332Y-90377558D01*
X122102337Y-90377559D01*
X122107969Y-90378833D01*
X122113740Y-90379060D01*
X122113742Y-90379060D01*
X122173969Y-90381426D01*
X122306949Y-90386651D01*
X122422506Y-90369896D01*
X122498300Y-90358907D01*
X122498304Y-90358906D01*
X122504022Y-90358077D01*
X122509494Y-90356219D01*
X122509496Y-90356219D01*
X122687119Y-90295923D01*
X122692587Y-90294067D01*
X122698448Y-90290785D01*
X122861291Y-90199588D01*
X122866330Y-90196766D01*
X122923938Y-90148855D01*
X123015001Y-90073119D01*
X123019433Y-90069433D01*
X123138282Y-89926531D01*
X123143077Y-89920766D01*
X123143079Y-89920764D01*
X123146766Y-89916330D01*
X123244067Y-89742587D01*
X123308077Y-89554022D01*
X123308923Y-89548191D01*
X123336118Y-89360623D01*
X123336651Y-89356949D01*
X123338142Y-89300000D01*
X123335525Y-89271516D01*
X123702231Y-89271516D01*
X123715255Y-89470223D01*
X123764272Y-89663229D01*
X123847641Y-89844071D01*
X123853708Y-89852656D01*
X123898709Y-89916330D01*
X123962570Y-90006692D01*
X124105210Y-90145645D01*
X124270784Y-90256278D01*
X124276087Y-90258556D01*
X124276090Y-90258558D01*
X124439506Y-90328767D01*
X124453746Y-90334885D01*
X124525276Y-90351071D01*
X124642332Y-90377558D01*
X124642337Y-90377559D01*
X124647969Y-90378833D01*
X124653740Y-90379060D01*
X124653742Y-90379060D01*
X124713969Y-90381426D01*
X124846949Y-90386651D01*
X124962506Y-90369896D01*
X125038300Y-90358907D01*
X125038304Y-90358906D01*
X125044022Y-90358077D01*
X125049494Y-90356219D01*
X125049496Y-90356219D01*
X125227119Y-90295923D01*
X125232587Y-90294067D01*
X125238448Y-90290785D01*
X125401291Y-90199588D01*
X125406330Y-90196766D01*
X125463938Y-90148855D01*
X125555001Y-90073119D01*
X125559433Y-90069433D01*
X125678282Y-89926531D01*
X125683077Y-89920766D01*
X125683079Y-89920764D01*
X125686766Y-89916330D01*
X125784067Y-89742587D01*
X125848077Y-89554022D01*
X125848923Y-89548191D01*
X125876118Y-89360623D01*
X125876651Y-89356949D01*
X125878142Y-89300000D01*
X125875525Y-89271516D01*
X126242231Y-89271516D01*
X126255255Y-89470223D01*
X126304272Y-89663229D01*
X126387641Y-89844071D01*
X126393708Y-89852656D01*
X126438709Y-89916330D01*
X126502570Y-90006692D01*
X126645210Y-90145645D01*
X126810784Y-90256278D01*
X126816087Y-90258556D01*
X126816090Y-90258558D01*
X126979506Y-90328767D01*
X126993746Y-90334885D01*
X127065276Y-90351071D01*
X127182332Y-90377558D01*
X127182337Y-90377559D01*
X127187969Y-90378833D01*
X127193740Y-90379060D01*
X127193742Y-90379060D01*
X127253969Y-90381426D01*
X127386949Y-90386651D01*
X127502506Y-90369896D01*
X127578300Y-90358907D01*
X127578304Y-90358906D01*
X127584022Y-90358077D01*
X127589494Y-90356219D01*
X127589496Y-90356219D01*
X127767119Y-90295923D01*
X127772587Y-90294067D01*
X127778448Y-90290785D01*
X127941291Y-90199588D01*
X127946330Y-90196766D01*
X128003938Y-90148855D01*
X128095001Y-90073119D01*
X128099433Y-90069433D01*
X128218282Y-89926531D01*
X128223077Y-89920766D01*
X128223079Y-89920764D01*
X128226766Y-89916330D01*
X128324067Y-89742587D01*
X128388077Y-89554022D01*
X128388923Y-89548191D01*
X128416118Y-89360623D01*
X128416651Y-89356949D01*
X128418142Y-89300000D01*
X128415525Y-89271516D01*
X128782231Y-89271516D01*
X128795255Y-89470223D01*
X128844272Y-89663229D01*
X128927641Y-89844071D01*
X128933708Y-89852656D01*
X128978709Y-89916330D01*
X129042570Y-90006692D01*
X129185210Y-90145645D01*
X129350784Y-90256278D01*
X129356087Y-90258556D01*
X129356090Y-90258558D01*
X129519506Y-90328767D01*
X129533746Y-90334885D01*
X129605276Y-90351071D01*
X129722332Y-90377558D01*
X129722337Y-90377559D01*
X129727969Y-90378833D01*
X129733740Y-90379060D01*
X129733742Y-90379060D01*
X129793969Y-90381426D01*
X129926949Y-90386651D01*
X130042506Y-90369896D01*
X130118300Y-90358907D01*
X130118304Y-90358906D01*
X130124022Y-90358077D01*
X130129494Y-90356219D01*
X130129496Y-90356219D01*
X130307119Y-90295923D01*
X130312587Y-90294067D01*
X130318448Y-90290785D01*
X130481291Y-90199588D01*
X130486330Y-90196766D01*
X130543938Y-90148855D01*
X130635001Y-90073119D01*
X130639433Y-90069433D01*
X130758282Y-89926531D01*
X130763077Y-89920766D01*
X130763079Y-89920764D01*
X130766766Y-89916330D01*
X130864067Y-89742587D01*
X130928077Y-89554022D01*
X130928923Y-89548191D01*
X130956118Y-89360623D01*
X130956651Y-89356949D01*
X130958142Y-89300000D01*
X130955525Y-89271516D01*
X131322231Y-89271516D01*
X131335255Y-89470223D01*
X131384272Y-89663229D01*
X131467641Y-89844071D01*
X131473708Y-89852656D01*
X131518709Y-89916330D01*
X131582570Y-90006692D01*
X131725210Y-90145645D01*
X131890784Y-90256278D01*
X131896087Y-90258556D01*
X131896090Y-90258558D01*
X132059506Y-90328767D01*
X132073746Y-90334885D01*
X132145276Y-90351071D01*
X132262332Y-90377558D01*
X132262337Y-90377559D01*
X132267969Y-90378833D01*
X132273740Y-90379060D01*
X132273742Y-90379060D01*
X132333969Y-90381426D01*
X132466949Y-90386651D01*
X132582506Y-90369896D01*
X132658300Y-90358907D01*
X132658304Y-90358906D01*
X132664022Y-90358077D01*
X132669494Y-90356219D01*
X132669496Y-90356219D01*
X132847119Y-90295923D01*
X132852587Y-90294067D01*
X132858448Y-90290785D01*
X133021291Y-90199588D01*
X133026330Y-90196766D01*
X133083938Y-90148855D01*
X133175001Y-90073119D01*
X133179433Y-90069433D01*
X133298282Y-89926531D01*
X133303077Y-89920766D01*
X133303079Y-89920764D01*
X133306766Y-89916330D01*
X133404067Y-89742587D01*
X133468077Y-89554022D01*
X133468923Y-89548191D01*
X133496118Y-89360623D01*
X133496651Y-89356949D01*
X133498142Y-89300000D01*
X133495525Y-89271516D01*
X133862231Y-89271516D01*
X133875255Y-89470223D01*
X133924272Y-89663229D01*
X134007641Y-89844071D01*
X134013708Y-89852656D01*
X134058709Y-89916330D01*
X134122570Y-90006692D01*
X134265210Y-90145645D01*
X134430784Y-90256278D01*
X134436087Y-90258556D01*
X134436090Y-90258558D01*
X134599506Y-90328767D01*
X134613746Y-90334885D01*
X134685276Y-90351071D01*
X134802332Y-90377558D01*
X134802337Y-90377559D01*
X134807969Y-90378833D01*
X134813740Y-90379060D01*
X134813742Y-90379060D01*
X134873969Y-90381426D01*
X135006949Y-90386651D01*
X135122506Y-90369896D01*
X135198300Y-90358907D01*
X135198304Y-90358906D01*
X135204022Y-90358077D01*
X135209494Y-90356219D01*
X135209496Y-90356219D01*
X135387119Y-90295923D01*
X135392587Y-90294067D01*
X135398448Y-90290785D01*
X135561291Y-90199588D01*
X135566330Y-90196766D01*
X135623938Y-90148855D01*
X135715001Y-90073119D01*
X135719433Y-90069433D01*
X135838282Y-89926531D01*
X135841107Y-89923134D01*
X136406500Y-89923134D01*
X136413255Y-89985316D01*
X136464385Y-90121705D01*
X136551739Y-90238261D01*
X136668295Y-90325615D01*
X136804684Y-90376745D01*
X136866866Y-90383500D01*
X138113134Y-90383500D01*
X138175316Y-90376745D01*
X138311705Y-90325615D01*
X138428261Y-90238261D01*
X138515615Y-90121705D01*
X138566745Y-89985316D01*
X138573500Y-89923134D01*
X138573500Y-88676866D01*
X138566745Y-88614684D01*
X138515615Y-88478295D01*
X138428261Y-88361739D01*
X138311705Y-88274385D01*
X138175316Y-88223255D01*
X138113134Y-88216500D01*
X136866866Y-88216500D01*
X136804684Y-88223255D01*
X136668295Y-88274385D01*
X136551739Y-88361739D01*
X136464385Y-88478295D01*
X136413255Y-88614684D01*
X136406500Y-88676866D01*
X136406500Y-89923134D01*
X135841107Y-89923134D01*
X135843077Y-89920766D01*
X135843079Y-89920764D01*
X135846766Y-89916330D01*
X135944067Y-89742587D01*
X136008077Y-89554022D01*
X136008923Y-89548191D01*
X136036118Y-89360623D01*
X136036651Y-89356949D01*
X136038142Y-89300000D01*
X136019921Y-89101702D01*
X136013660Y-89079500D01*
X135967436Y-88915604D01*
X135967435Y-88915602D01*
X135965868Y-88910045D01*
X135955634Y-88889292D01*
X135880349Y-88736627D01*
X135880346Y-88736623D01*
X135877794Y-88731447D01*
X135834500Y-88673469D01*
X135762100Y-88576515D01*
X135758647Y-88571891D01*
X135612419Y-88436719D01*
X135607536Y-88433638D01*
X135448886Y-88333537D01*
X135444006Y-88330458D01*
X135259049Y-88256668D01*
X135253389Y-88255542D01*
X135253385Y-88255541D01*
X135069410Y-88218946D01*
X135069405Y-88218946D01*
X135063742Y-88217819D01*
X135057967Y-88217743D01*
X135057963Y-88217743D01*
X134960390Y-88216466D01*
X134864625Y-88215212D01*
X134668368Y-88248936D01*
X134481543Y-88317859D01*
X134476582Y-88320811D01*
X134476581Y-88320811D01*
X134396928Y-88368200D01*
X134310406Y-88419675D01*
X134160690Y-88550972D01*
X134157118Y-88555503D01*
X134061443Y-88676866D01*
X134037407Y-88707355D01*
X133944688Y-88883586D01*
X133885637Y-89073763D01*
X133862231Y-89271516D01*
X133495525Y-89271516D01*
X133479921Y-89101702D01*
X133473660Y-89079500D01*
X133427436Y-88915604D01*
X133427435Y-88915602D01*
X133425868Y-88910045D01*
X133415634Y-88889292D01*
X133340349Y-88736627D01*
X133340346Y-88736623D01*
X133337794Y-88731447D01*
X133294500Y-88673469D01*
X133222100Y-88576515D01*
X133218647Y-88571891D01*
X133072419Y-88436719D01*
X133067536Y-88433638D01*
X132908886Y-88333537D01*
X132904006Y-88330458D01*
X132719049Y-88256668D01*
X132713389Y-88255542D01*
X132713385Y-88255541D01*
X132529410Y-88218946D01*
X132529405Y-88218946D01*
X132523742Y-88217819D01*
X132517967Y-88217743D01*
X132517963Y-88217743D01*
X132420390Y-88216466D01*
X132324625Y-88215212D01*
X132128368Y-88248936D01*
X131941543Y-88317859D01*
X131936582Y-88320811D01*
X131936581Y-88320811D01*
X131856928Y-88368200D01*
X131770406Y-88419675D01*
X131620690Y-88550972D01*
X131617118Y-88555503D01*
X131521443Y-88676866D01*
X131497407Y-88707355D01*
X131404688Y-88883586D01*
X131345637Y-89073763D01*
X131322231Y-89271516D01*
X130955525Y-89271516D01*
X130939921Y-89101702D01*
X130933660Y-89079500D01*
X130887436Y-88915604D01*
X130887435Y-88915602D01*
X130885868Y-88910045D01*
X130875634Y-88889292D01*
X130800349Y-88736627D01*
X130800346Y-88736623D01*
X130797794Y-88731447D01*
X130754500Y-88673469D01*
X130682100Y-88576515D01*
X130678647Y-88571891D01*
X130532419Y-88436719D01*
X130527536Y-88433638D01*
X130368886Y-88333537D01*
X130364006Y-88330458D01*
X130179049Y-88256668D01*
X130173389Y-88255542D01*
X130173385Y-88255541D01*
X129989410Y-88218946D01*
X129989405Y-88218946D01*
X129983742Y-88217819D01*
X129977967Y-88217743D01*
X129977963Y-88217743D01*
X129880390Y-88216466D01*
X129784625Y-88215212D01*
X129588368Y-88248936D01*
X129401543Y-88317859D01*
X129396582Y-88320811D01*
X129396581Y-88320811D01*
X129316928Y-88368200D01*
X129230406Y-88419675D01*
X129080690Y-88550972D01*
X129077118Y-88555503D01*
X128981443Y-88676866D01*
X128957407Y-88707355D01*
X128864688Y-88883586D01*
X128805637Y-89073763D01*
X128782231Y-89271516D01*
X128415525Y-89271516D01*
X128399921Y-89101702D01*
X128393660Y-89079500D01*
X128347436Y-88915604D01*
X128347435Y-88915602D01*
X128345868Y-88910045D01*
X128335634Y-88889292D01*
X128260349Y-88736627D01*
X128260346Y-88736623D01*
X128257794Y-88731447D01*
X128214500Y-88673469D01*
X128142100Y-88576515D01*
X128138647Y-88571891D01*
X127992419Y-88436719D01*
X127987536Y-88433638D01*
X127828886Y-88333537D01*
X127824006Y-88330458D01*
X127639049Y-88256668D01*
X127633389Y-88255542D01*
X127633385Y-88255541D01*
X127449410Y-88218946D01*
X127449405Y-88218946D01*
X127443742Y-88217819D01*
X127437967Y-88217743D01*
X127437963Y-88217743D01*
X127340390Y-88216466D01*
X127244625Y-88215212D01*
X127048368Y-88248936D01*
X126861543Y-88317859D01*
X126856582Y-88320811D01*
X126856581Y-88320811D01*
X126776928Y-88368200D01*
X126690406Y-88419675D01*
X126540690Y-88550972D01*
X126537118Y-88555503D01*
X126441443Y-88676866D01*
X126417407Y-88707355D01*
X126324688Y-88883586D01*
X126265637Y-89073763D01*
X126242231Y-89271516D01*
X125875525Y-89271516D01*
X125859921Y-89101702D01*
X125853660Y-89079500D01*
X125807436Y-88915604D01*
X125807435Y-88915602D01*
X125805868Y-88910045D01*
X125795634Y-88889292D01*
X125720349Y-88736627D01*
X125720346Y-88736623D01*
X125717794Y-88731447D01*
X125674500Y-88673469D01*
X125602100Y-88576515D01*
X125598647Y-88571891D01*
X125452419Y-88436719D01*
X125447536Y-88433638D01*
X125288886Y-88333537D01*
X125284006Y-88330458D01*
X125099049Y-88256668D01*
X125093389Y-88255542D01*
X125093385Y-88255541D01*
X124909410Y-88218946D01*
X124909405Y-88218946D01*
X124903742Y-88217819D01*
X124897967Y-88217743D01*
X124897963Y-88217743D01*
X124800390Y-88216466D01*
X124704625Y-88215212D01*
X124508368Y-88248936D01*
X124321543Y-88317859D01*
X124316582Y-88320811D01*
X124316581Y-88320811D01*
X124236928Y-88368200D01*
X124150406Y-88419675D01*
X124000690Y-88550972D01*
X123997118Y-88555503D01*
X123901443Y-88676866D01*
X123877407Y-88707355D01*
X123784688Y-88883586D01*
X123725637Y-89073763D01*
X123702231Y-89271516D01*
X123335525Y-89271516D01*
X123319921Y-89101702D01*
X123313660Y-89079500D01*
X123267436Y-88915604D01*
X123267435Y-88915602D01*
X123265868Y-88910045D01*
X123255634Y-88889292D01*
X123180349Y-88736627D01*
X123180346Y-88736623D01*
X123177794Y-88731447D01*
X123134500Y-88673469D01*
X123062100Y-88576515D01*
X123058647Y-88571891D01*
X122912419Y-88436719D01*
X122907536Y-88433638D01*
X122748886Y-88333537D01*
X122744006Y-88330458D01*
X122559049Y-88256668D01*
X122553389Y-88255542D01*
X122553385Y-88255541D01*
X122369410Y-88218946D01*
X122369405Y-88218946D01*
X122363742Y-88217819D01*
X122357967Y-88217743D01*
X122357963Y-88217743D01*
X122260390Y-88216466D01*
X122164625Y-88215212D01*
X121968368Y-88248936D01*
X121781543Y-88317859D01*
X121776582Y-88320811D01*
X121776581Y-88320811D01*
X121696928Y-88368200D01*
X121610406Y-88419675D01*
X121460690Y-88550972D01*
X121457118Y-88555503D01*
X121361443Y-88676866D01*
X121337407Y-88707355D01*
X121244688Y-88883586D01*
X121185637Y-89073763D01*
X121162231Y-89271516D01*
X120795525Y-89271516D01*
X120779921Y-89101702D01*
X120773660Y-89079500D01*
X120727436Y-88915604D01*
X120727435Y-88915602D01*
X120725868Y-88910045D01*
X120715634Y-88889292D01*
X120640349Y-88736627D01*
X120640346Y-88736623D01*
X120637794Y-88731447D01*
X120594500Y-88673469D01*
X120522100Y-88576515D01*
X120518647Y-88571891D01*
X120372419Y-88436719D01*
X120367536Y-88433638D01*
X120208886Y-88333537D01*
X120204006Y-88330458D01*
X120019049Y-88256668D01*
X120013389Y-88255542D01*
X120013385Y-88255541D01*
X119829410Y-88218946D01*
X119829405Y-88218946D01*
X119823742Y-88217819D01*
X119817967Y-88217743D01*
X119817963Y-88217743D01*
X119720390Y-88216466D01*
X119624625Y-88215212D01*
X119428368Y-88248936D01*
X119241543Y-88317859D01*
X119236582Y-88320811D01*
X119236581Y-88320811D01*
X119156928Y-88368200D01*
X119070406Y-88419675D01*
X118920690Y-88550972D01*
X118917118Y-88555503D01*
X118821443Y-88676866D01*
X118797407Y-88707355D01*
X118704688Y-88883586D01*
X118645637Y-89073763D01*
X118622231Y-89271516D01*
X117183500Y-89271516D01*
X117183500Y-88676866D01*
X117176745Y-88614684D01*
X117125615Y-88478295D01*
X117038261Y-88361739D01*
X116921705Y-88274385D01*
X116785316Y-88223255D01*
X116723134Y-88216500D01*
X115476866Y-88216500D01*
X115414684Y-88223255D01*
X115278295Y-88274385D01*
X115161739Y-88361739D01*
X115074385Y-88478295D01*
X115023255Y-88614684D01*
X115016500Y-88676866D01*
X115016500Y-89923134D01*
X114451107Y-89923134D01*
X114453077Y-89920766D01*
X114453079Y-89920764D01*
X114456766Y-89916330D01*
X114554067Y-89742587D01*
X114618077Y-89554022D01*
X114618923Y-89548191D01*
X114646118Y-89360623D01*
X114646651Y-89356949D01*
X114648142Y-89300000D01*
X114629921Y-89101702D01*
X114623660Y-89079500D01*
X114577436Y-88915604D01*
X114577435Y-88915602D01*
X114575868Y-88910045D01*
X114565634Y-88889292D01*
X114490349Y-88736627D01*
X114490346Y-88736623D01*
X114487794Y-88731447D01*
X114444500Y-88673469D01*
X114372100Y-88576515D01*
X114368647Y-88571891D01*
X114222419Y-88436719D01*
X114217536Y-88433638D01*
X114058886Y-88333537D01*
X114054006Y-88330458D01*
X113869049Y-88256668D01*
X113863389Y-88255542D01*
X113863385Y-88255541D01*
X113679410Y-88218946D01*
X113679405Y-88218946D01*
X113673742Y-88217819D01*
X113667967Y-88217743D01*
X113667963Y-88217743D01*
X113570390Y-88216466D01*
X113474625Y-88215212D01*
X113278368Y-88248936D01*
X113091543Y-88317859D01*
X113086582Y-88320811D01*
X113086581Y-88320811D01*
X113006928Y-88368200D01*
X112920406Y-88419675D01*
X112770690Y-88550972D01*
X112767118Y-88555503D01*
X112671443Y-88676866D01*
X112647407Y-88707355D01*
X112554688Y-88883586D01*
X112495637Y-89073763D01*
X112472231Y-89271516D01*
X112105525Y-89271516D01*
X112089921Y-89101702D01*
X112083660Y-89079500D01*
X112037436Y-88915604D01*
X112037435Y-88915602D01*
X112035868Y-88910045D01*
X112025634Y-88889292D01*
X111950349Y-88736627D01*
X111950346Y-88736623D01*
X111947794Y-88731447D01*
X111904500Y-88673469D01*
X111832100Y-88576515D01*
X111828647Y-88571891D01*
X111682419Y-88436719D01*
X111677536Y-88433638D01*
X111518886Y-88333537D01*
X111514006Y-88330458D01*
X111329049Y-88256668D01*
X111323389Y-88255542D01*
X111323385Y-88255541D01*
X111139410Y-88218946D01*
X111139405Y-88218946D01*
X111133742Y-88217819D01*
X111127967Y-88217743D01*
X111127963Y-88217743D01*
X111030390Y-88216466D01*
X110934625Y-88215212D01*
X110738368Y-88248936D01*
X110551543Y-88317859D01*
X110546582Y-88320811D01*
X110546581Y-88320811D01*
X110466928Y-88368200D01*
X110380406Y-88419675D01*
X110230690Y-88550972D01*
X110227118Y-88555503D01*
X110131443Y-88676866D01*
X110107407Y-88707355D01*
X110014688Y-88883586D01*
X109955637Y-89073763D01*
X109932231Y-89271516D01*
X109565022Y-89271516D01*
X109549956Y-89107547D01*
X109547859Y-89096233D01*
X109496967Y-88915784D01*
X109492845Y-88905045D01*
X109415422Y-88748047D01*
X109405875Y-88737670D01*
X109399442Y-88739768D01*
X108852022Y-89287188D01*
X108844408Y-89301132D01*
X108114356Y-89301132D01*
X108115592Y-89298868D01*
X108115461Y-89297035D01*
X108111210Y-89290420D01*
X107567054Y-88746264D01*
X107554674Y-88739504D01*
X107548708Y-88743970D01*
X107477841Y-88878668D01*
X107473440Y-88889292D01*
X107417841Y-89068350D01*
X107415449Y-89079604D01*
X107393412Y-89265794D01*
X107393111Y-89277295D01*
X107026056Y-89277295D01*
X107009921Y-89101702D01*
X107003660Y-89079500D01*
X106957436Y-88915604D01*
X106957435Y-88915602D01*
X106955868Y-88910045D01*
X106945634Y-88889292D01*
X106870349Y-88736627D01*
X106870346Y-88736623D01*
X106867794Y-88731447D01*
X106824500Y-88673469D01*
X106752100Y-88576515D01*
X106748647Y-88571891D01*
X106602419Y-88436719D01*
X106597536Y-88433638D01*
X106507636Y-88376915D01*
X107921027Y-88376915D01*
X107924513Y-88385303D01*
X108467188Y-88927978D01*
X108481132Y-88935592D01*
X108482965Y-88935461D01*
X108489580Y-88931210D01*
X109032155Y-88388635D01*
X109038915Y-88376255D01*
X109032885Y-88368200D01*
X108978657Y-88333985D01*
X108968418Y-88328768D01*
X108794274Y-88259291D01*
X108783236Y-88256021D01*
X108599356Y-88219445D01*
X108587910Y-88218242D01*
X108400447Y-88215789D01*
X108388967Y-88216692D01*
X108204195Y-88248441D01*
X108193075Y-88251421D01*
X108017175Y-88316314D01*
X108006797Y-88321264D01*
X107930625Y-88366582D01*
X107921027Y-88376915D01*
X106507636Y-88376915D01*
X106438886Y-88333537D01*
X106434006Y-88330458D01*
X106249049Y-88256668D01*
X106243389Y-88255542D01*
X106243385Y-88255541D01*
X106059410Y-88218946D01*
X106059405Y-88218946D01*
X106053742Y-88217819D01*
X106047967Y-88217743D01*
X106047963Y-88217743D01*
X105950390Y-88216466D01*
X105854625Y-88215212D01*
X105658368Y-88248936D01*
X105471543Y-88317859D01*
X105466582Y-88320811D01*
X105466581Y-88320811D01*
X105386928Y-88368200D01*
X105300406Y-88419675D01*
X105150690Y-88550972D01*
X105147118Y-88555503D01*
X105051443Y-88676866D01*
X105027407Y-88707355D01*
X104934688Y-88883586D01*
X104875637Y-89073763D01*
X104852231Y-89271516D01*
X104485525Y-89271516D01*
X104469921Y-89101702D01*
X104463660Y-89079500D01*
X104417436Y-88915604D01*
X104417435Y-88915602D01*
X104415868Y-88910045D01*
X104405634Y-88889292D01*
X104330349Y-88736627D01*
X104330346Y-88736623D01*
X104327794Y-88731447D01*
X104284500Y-88673469D01*
X104212100Y-88576515D01*
X104208647Y-88571891D01*
X104062419Y-88436719D01*
X104057536Y-88433638D01*
X103898886Y-88333537D01*
X103894006Y-88330458D01*
X103709049Y-88256668D01*
X103703389Y-88255542D01*
X103703385Y-88255541D01*
X103519410Y-88218946D01*
X103519405Y-88218946D01*
X103513742Y-88217819D01*
X103507967Y-88217743D01*
X103507963Y-88217743D01*
X103410390Y-88216466D01*
X103314625Y-88215212D01*
X103118368Y-88248936D01*
X102931543Y-88317859D01*
X102926582Y-88320811D01*
X102926581Y-88320811D01*
X102846928Y-88368200D01*
X102760406Y-88419675D01*
X102610690Y-88550972D01*
X102607118Y-88555503D01*
X102511443Y-88676866D01*
X102487407Y-88707355D01*
X102394688Y-88883586D01*
X102335637Y-89073763D01*
X102312231Y-89271516D01*
X101945525Y-89271516D01*
X101929921Y-89101702D01*
X101923660Y-89079500D01*
X101877436Y-88915604D01*
X101877435Y-88915602D01*
X101875868Y-88910045D01*
X101865634Y-88889292D01*
X101790349Y-88736627D01*
X101790346Y-88736623D01*
X101787794Y-88731447D01*
X101744500Y-88673469D01*
X101672100Y-88576515D01*
X101668647Y-88571891D01*
X101522419Y-88436719D01*
X101517536Y-88433638D01*
X101358886Y-88333537D01*
X101354006Y-88330458D01*
X101169049Y-88256668D01*
X101163389Y-88255542D01*
X101163385Y-88255541D01*
X100979410Y-88218946D01*
X100979405Y-88218946D01*
X100973742Y-88217819D01*
X100967967Y-88217743D01*
X100967963Y-88217743D01*
X100870390Y-88216466D01*
X100774625Y-88215212D01*
X100578368Y-88248936D01*
X100391543Y-88317859D01*
X100386582Y-88320811D01*
X100386581Y-88320811D01*
X100306928Y-88368200D01*
X100220406Y-88419675D01*
X100070690Y-88550972D01*
X100067118Y-88555503D01*
X99971443Y-88676866D01*
X99947407Y-88707355D01*
X99854688Y-88883586D01*
X99795637Y-89073763D01*
X99772231Y-89271516D01*
X99405525Y-89271516D01*
X99389921Y-89101702D01*
X99383660Y-89079500D01*
X99337436Y-88915604D01*
X99337435Y-88915602D01*
X99335868Y-88910045D01*
X99325634Y-88889292D01*
X99250349Y-88736627D01*
X99250346Y-88736623D01*
X99247794Y-88731447D01*
X99204500Y-88673469D01*
X99132100Y-88576515D01*
X99128647Y-88571891D01*
X98982419Y-88436719D01*
X98977536Y-88433638D01*
X98818886Y-88333537D01*
X98814006Y-88330458D01*
X98629049Y-88256668D01*
X98623389Y-88255542D01*
X98623385Y-88255541D01*
X98439410Y-88218946D01*
X98439405Y-88218946D01*
X98433742Y-88217819D01*
X98427967Y-88217743D01*
X98427963Y-88217743D01*
X98330390Y-88216466D01*
X98234625Y-88215212D01*
X98038368Y-88248936D01*
X97851543Y-88317859D01*
X97846582Y-88320811D01*
X97846581Y-88320811D01*
X97766928Y-88368200D01*
X97680406Y-88419675D01*
X97530690Y-88550972D01*
X97527118Y-88555503D01*
X97431443Y-88676866D01*
X97407407Y-88707355D01*
X97314688Y-88883586D01*
X97255637Y-89073763D01*
X97232231Y-89271516D01*
X93408500Y-89271516D01*
X93408500Y-67323134D01*
X97126500Y-67323134D01*
X97133255Y-67385316D01*
X97184385Y-67521705D01*
X97271739Y-67638261D01*
X97388295Y-67725615D01*
X97524684Y-67776745D01*
X97586866Y-67783500D01*
X98833134Y-67783500D01*
X98895316Y-67776745D01*
X99031705Y-67725615D01*
X99148261Y-67638261D01*
X99235615Y-67521705D01*
X99286745Y-67385316D01*
X99293500Y-67323134D01*
X99293500Y-66671516D01*
X99662231Y-66671516D01*
X99675255Y-66870223D01*
X99724272Y-67063229D01*
X99807641Y-67244071D01*
X99813708Y-67252656D01*
X99858709Y-67316330D01*
X99922570Y-67406692D01*
X100065210Y-67545645D01*
X100230784Y-67656278D01*
X100236087Y-67658556D01*
X100236090Y-67658558D01*
X100399506Y-67728767D01*
X100413746Y-67734885D01*
X100485276Y-67751071D01*
X100602332Y-67777558D01*
X100602337Y-67777559D01*
X100607969Y-67778833D01*
X100613740Y-67779060D01*
X100613742Y-67779060D01*
X100673969Y-67781426D01*
X100806949Y-67786651D01*
X100922506Y-67769896D01*
X100998300Y-67758907D01*
X100998304Y-67758906D01*
X101004022Y-67758077D01*
X101009494Y-67756219D01*
X101009496Y-67756219D01*
X101187119Y-67695923D01*
X101192587Y-67694067D01*
X101198448Y-67690785D01*
X101361291Y-67599588D01*
X101366330Y-67596766D01*
X101423938Y-67548855D01*
X101515001Y-67473119D01*
X101519433Y-67469433D01*
X101638282Y-67326531D01*
X101643077Y-67320766D01*
X101643079Y-67320764D01*
X101646766Y-67316330D01*
X101744067Y-67142587D01*
X101808077Y-66954022D01*
X101808923Y-66948191D01*
X101836118Y-66760623D01*
X101836651Y-66756949D01*
X101838142Y-66700000D01*
X101835525Y-66671516D01*
X102202231Y-66671516D01*
X102215255Y-66870223D01*
X102264272Y-67063229D01*
X102347641Y-67244071D01*
X102353708Y-67252656D01*
X102398709Y-67316330D01*
X102462570Y-67406692D01*
X102605210Y-67545645D01*
X102770784Y-67656278D01*
X102776087Y-67658556D01*
X102776090Y-67658558D01*
X102939506Y-67728767D01*
X102953746Y-67734885D01*
X103025276Y-67751071D01*
X103142332Y-67777558D01*
X103142337Y-67777559D01*
X103147969Y-67778833D01*
X103153740Y-67779060D01*
X103153742Y-67779060D01*
X103213969Y-67781426D01*
X103346949Y-67786651D01*
X103462506Y-67769896D01*
X103538300Y-67758907D01*
X103538304Y-67758906D01*
X103544022Y-67758077D01*
X103549494Y-67756219D01*
X103549496Y-67756219D01*
X103727119Y-67695923D01*
X103732587Y-67694067D01*
X103738448Y-67690785D01*
X103901291Y-67599588D01*
X103906330Y-67596766D01*
X103963938Y-67548855D01*
X104055001Y-67473119D01*
X104059433Y-67469433D01*
X104178282Y-67326531D01*
X104183077Y-67320766D01*
X104183079Y-67320764D01*
X104186766Y-67316330D01*
X104284067Y-67142587D01*
X104348077Y-66954022D01*
X104348923Y-66948191D01*
X104376118Y-66760623D01*
X104376651Y-66756949D01*
X104378142Y-66700000D01*
X104375525Y-66671516D01*
X104742231Y-66671516D01*
X104755255Y-66870223D01*
X104804272Y-67063229D01*
X104887641Y-67244071D01*
X104893708Y-67252656D01*
X104938709Y-67316330D01*
X105002570Y-67406692D01*
X105145210Y-67545645D01*
X105310784Y-67656278D01*
X105316087Y-67658556D01*
X105316090Y-67658558D01*
X105479506Y-67728767D01*
X105493746Y-67734885D01*
X105565276Y-67751071D01*
X105682332Y-67777558D01*
X105682337Y-67777559D01*
X105687969Y-67778833D01*
X105693740Y-67779060D01*
X105693742Y-67779060D01*
X105753969Y-67781426D01*
X105886949Y-67786651D01*
X106002506Y-67769896D01*
X106078300Y-67758907D01*
X106078304Y-67758906D01*
X106084022Y-67758077D01*
X106089494Y-67756219D01*
X106089496Y-67756219D01*
X106267119Y-67695923D01*
X106272587Y-67694067D01*
X106278448Y-67690785D01*
X106441291Y-67599588D01*
X106446330Y-67596766D01*
X106503938Y-67548855D01*
X106595001Y-67473119D01*
X106599433Y-67469433D01*
X106718282Y-67326531D01*
X106723077Y-67320766D01*
X106723079Y-67320764D01*
X106726766Y-67316330D01*
X106824067Y-67142587D01*
X106888077Y-66954022D01*
X106888923Y-66948191D01*
X106916118Y-66760623D01*
X106916651Y-66756949D01*
X106918142Y-66700000D01*
X106915525Y-66671516D01*
X107282231Y-66671516D01*
X107295255Y-66870223D01*
X107344272Y-67063229D01*
X107427641Y-67244071D01*
X107433708Y-67252656D01*
X107478709Y-67316330D01*
X107542570Y-67406692D01*
X107685210Y-67545645D01*
X107850784Y-67656278D01*
X107856087Y-67658556D01*
X107856090Y-67658558D01*
X108019506Y-67728767D01*
X108033746Y-67734885D01*
X108105276Y-67751071D01*
X108222332Y-67777558D01*
X108222337Y-67777559D01*
X108227969Y-67778833D01*
X108233740Y-67779060D01*
X108233742Y-67779060D01*
X108293969Y-67781426D01*
X108426949Y-67786651D01*
X108542506Y-67769896D01*
X108618300Y-67758907D01*
X108618304Y-67758906D01*
X108624022Y-67758077D01*
X108629494Y-67756219D01*
X108629496Y-67756219D01*
X108807119Y-67695923D01*
X108812587Y-67694067D01*
X108818448Y-67690785D01*
X108981291Y-67599588D01*
X108986330Y-67596766D01*
X109043938Y-67548855D01*
X109135001Y-67473119D01*
X109139433Y-67469433D01*
X109258282Y-67326531D01*
X109263077Y-67320766D01*
X109263079Y-67320764D01*
X109266766Y-67316330D01*
X109364067Y-67142587D01*
X109428077Y-66954022D01*
X109428923Y-66948191D01*
X109456118Y-66760623D01*
X109456651Y-66756949D01*
X109458142Y-66700000D01*
X109455525Y-66671516D01*
X109822231Y-66671516D01*
X109835255Y-66870223D01*
X109884272Y-67063229D01*
X109967641Y-67244071D01*
X109973708Y-67252656D01*
X110018709Y-67316330D01*
X110082570Y-67406692D01*
X110225210Y-67545645D01*
X110390784Y-67656278D01*
X110396087Y-67658556D01*
X110396090Y-67658558D01*
X110559506Y-67728767D01*
X110573746Y-67734885D01*
X110645276Y-67751071D01*
X110762332Y-67777558D01*
X110762337Y-67777559D01*
X110767969Y-67778833D01*
X110773740Y-67779060D01*
X110773742Y-67779060D01*
X110833969Y-67781426D01*
X110966949Y-67786651D01*
X111082506Y-67769896D01*
X111158300Y-67758907D01*
X111158304Y-67758906D01*
X111164022Y-67758077D01*
X111169494Y-67756219D01*
X111169496Y-67756219D01*
X111347119Y-67695923D01*
X111352587Y-67694067D01*
X111358448Y-67690785D01*
X111521291Y-67599588D01*
X111526330Y-67596766D01*
X111583938Y-67548855D01*
X111675001Y-67473119D01*
X111679433Y-67469433D01*
X111798282Y-67326531D01*
X111803077Y-67320766D01*
X111803079Y-67320764D01*
X111806766Y-67316330D01*
X111904067Y-67142587D01*
X111968077Y-66954022D01*
X111968923Y-66948191D01*
X111996118Y-66760623D01*
X111996651Y-66756949D01*
X111998142Y-66700000D01*
X111995525Y-66671516D01*
X112362231Y-66671516D01*
X112375255Y-66870223D01*
X112424272Y-67063229D01*
X112507641Y-67244071D01*
X112513708Y-67252656D01*
X112558709Y-67316330D01*
X112622570Y-67406692D01*
X112765210Y-67545645D01*
X112930784Y-67656278D01*
X112936087Y-67658556D01*
X112936090Y-67658558D01*
X113099506Y-67728767D01*
X113113746Y-67734885D01*
X113185276Y-67751071D01*
X113302332Y-67777558D01*
X113302337Y-67777559D01*
X113307969Y-67778833D01*
X113313740Y-67779060D01*
X113313742Y-67779060D01*
X113373969Y-67781426D01*
X113506949Y-67786651D01*
X113622506Y-67769896D01*
X113698300Y-67758907D01*
X113698304Y-67758906D01*
X113704022Y-67758077D01*
X113709494Y-67756219D01*
X113709496Y-67756219D01*
X113887119Y-67695923D01*
X113892587Y-67694067D01*
X113898448Y-67690785D01*
X114061291Y-67599588D01*
X114066330Y-67596766D01*
X114123938Y-67548855D01*
X114215001Y-67473119D01*
X114219433Y-67469433D01*
X114338282Y-67326531D01*
X114343077Y-67320766D01*
X114343079Y-67320764D01*
X114346766Y-67316330D01*
X114444067Y-67142587D01*
X114508077Y-66954022D01*
X114508923Y-66948191D01*
X114536118Y-66760623D01*
X114536651Y-66756949D01*
X114538142Y-66700000D01*
X114535525Y-66671516D01*
X114902231Y-66671516D01*
X114915255Y-66870223D01*
X114964272Y-67063229D01*
X115047641Y-67244071D01*
X115053708Y-67252656D01*
X115098709Y-67316330D01*
X115162570Y-67406692D01*
X115305210Y-67545645D01*
X115470784Y-67656278D01*
X115476087Y-67658556D01*
X115476090Y-67658558D01*
X115639506Y-67728767D01*
X115653746Y-67734885D01*
X115725276Y-67751071D01*
X115842332Y-67777558D01*
X115842337Y-67777559D01*
X115847969Y-67778833D01*
X115853740Y-67779060D01*
X115853742Y-67779060D01*
X115913969Y-67781426D01*
X116046949Y-67786651D01*
X116162506Y-67769896D01*
X116238300Y-67758907D01*
X116238304Y-67758906D01*
X116244022Y-67758077D01*
X116249494Y-67756219D01*
X116249496Y-67756219D01*
X116427119Y-67695923D01*
X116432587Y-67694067D01*
X116438448Y-67690785D01*
X116601291Y-67599588D01*
X116606330Y-67596766D01*
X116663938Y-67548855D01*
X116755001Y-67473119D01*
X116759433Y-67469433D01*
X116878282Y-67326531D01*
X116881107Y-67323134D01*
X118716500Y-67323134D01*
X118723255Y-67385316D01*
X118774385Y-67521705D01*
X118861739Y-67638261D01*
X118978295Y-67725615D01*
X119114684Y-67776745D01*
X119176866Y-67783500D01*
X120423134Y-67783500D01*
X120485316Y-67776745D01*
X120621705Y-67725615D01*
X120738261Y-67638261D01*
X120825615Y-67521705D01*
X120876745Y-67385316D01*
X120883500Y-67323134D01*
X120883500Y-66671516D01*
X121252231Y-66671516D01*
X121265255Y-66870223D01*
X121314272Y-67063229D01*
X121397641Y-67244071D01*
X121403708Y-67252656D01*
X121448709Y-67316330D01*
X121512570Y-67406692D01*
X121655210Y-67545645D01*
X121820784Y-67656278D01*
X121826087Y-67658556D01*
X121826090Y-67658558D01*
X121989506Y-67728767D01*
X122003746Y-67734885D01*
X122075276Y-67751071D01*
X122192332Y-67777558D01*
X122192337Y-67777559D01*
X122197969Y-67778833D01*
X122203740Y-67779060D01*
X122203742Y-67779060D01*
X122263969Y-67781426D01*
X122396949Y-67786651D01*
X122512506Y-67769896D01*
X122588300Y-67758907D01*
X122588304Y-67758906D01*
X122594022Y-67758077D01*
X122599494Y-67756219D01*
X122599496Y-67756219D01*
X122777119Y-67695923D01*
X122782587Y-67694067D01*
X122788448Y-67690785D01*
X122951291Y-67599588D01*
X122956330Y-67596766D01*
X123013938Y-67548855D01*
X123105001Y-67473119D01*
X123109433Y-67469433D01*
X123228282Y-67326531D01*
X123233077Y-67320766D01*
X123233079Y-67320764D01*
X123236766Y-67316330D01*
X123334067Y-67142587D01*
X123398077Y-66954022D01*
X123398923Y-66948191D01*
X123426118Y-66760623D01*
X123426651Y-66756949D01*
X123428142Y-66700000D01*
X123425525Y-66671516D01*
X123792231Y-66671516D01*
X123805255Y-66870223D01*
X123854272Y-67063229D01*
X123937641Y-67244071D01*
X123943708Y-67252656D01*
X123988709Y-67316330D01*
X124052570Y-67406692D01*
X124195210Y-67545645D01*
X124360784Y-67656278D01*
X124366087Y-67658556D01*
X124366090Y-67658558D01*
X124529506Y-67728767D01*
X124543746Y-67734885D01*
X124615276Y-67751071D01*
X124732332Y-67777558D01*
X124732337Y-67777559D01*
X124737969Y-67778833D01*
X124743740Y-67779060D01*
X124743742Y-67779060D01*
X124803969Y-67781426D01*
X124936949Y-67786651D01*
X125052506Y-67769896D01*
X125128300Y-67758907D01*
X125128304Y-67758906D01*
X125134022Y-67758077D01*
X125139494Y-67756219D01*
X125139496Y-67756219D01*
X125317119Y-67695923D01*
X125322587Y-67694067D01*
X125328448Y-67690785D01*
X125449004Y-67623270D01*
X126861091Y-67623270D01*
X126870971Y-67635757D01*
X126896222Y-67652629D01*
X126906330Y-67658117D01*
X127078598Y-67732129D01*
X127089531Y-67735681D01*
X127272398Y-67777060D01*
X127283807Y-67778562D01*
X127471155Y-67785922D01*
X127482637Y-67785320D01*
X127668191Y-67758417D01*
X127679374Y-67755732D01*
X127856911Y-67695467D01*
X127867426Y-67690785D01*
X127969662Y-67633530D01*
X127979526Y-67623452D01*
X127976571Y-67615781D01*
X127432812Y-67072022D01*
X127418868Y-67064408D01*
X127417035Y-67064539D01*
X127410420Y-67068790D01*
X126867287Y-67611923D01*
X126861091Y-67623270D01*
X125449004Y-67623270D01*
X125491291Y-67599588D01*
X125496330Y-67596766D01*
X125553938Y-67548855D01*
X125645001Y-67473119D01*
X125649433Y-67469433D01*
X125768282Y-67326531D01*
X125773077Y-67320766D01*
X125773079Y-67320764D01*
X125776766Y-67316330D01*
X125874067Y-67142587D01*
X125938077Y-66954022D01*
X125938923Y-66948191D01*
X125966118Y-66760623D01*
X125966651Y-66756949D01*
X125968142Y-66700000D01*
X125966056Y-66677295D01*
X126333111Y-66677295D01*
X126345373Y-66864376D01*
X126347174Y-66875746D01*
X126393323Y-67057462D01*
X126397164Y-67068308D01*
X126475658Y-67238574D01*
X126481410Y-67248538D01*
X126483725Y-67251813D01*
X126494314Y-67260203D01*
X126507616Y-67253174D01*
X127047978Y-66712812D01*
X127054356Y-66701132D01*
X127784408Y-66701132D01*
X127784539Y-66702965D01*
X127788790Y-66709580D01*
X128331866Y-67252656D01*
X128344246Y-67259416D01*
X128350826Y-67254490D01*
X128410785Y-67147426D01*
X128415467Y-67136911D01*
X128475732Y-66959374D01*
X128478417Y-66948191D01*
X128505616Y-66760597D01*
X128506246Y-66753214D01*
X128507543Y-66703704D01*
X128507300Y-66696305D01*
X128505022Y-66671516D01*
X128872231Y-66671516D01*
X128885255Y-66870223D01*
X128934272Y-67063229D01*
X129017641Y-67244071D01*
X129023708Y-67252656D01*
X129068709Y-67316330D01*
X129132570Y-67406692D01*
X129275210Y-67545645D01*
X129440784Y-67656278D01*
X129446087Y-67658556D01*
X129446090Y-67658558D01*
X129609506Y-67728767D01*
X129623746Y-67734885D01*
X129695276Y-67751071D01*
X129812332Y-67777558D01*
X129812337Y-67777559D01*
X129817969Y-67778833D01*
X129823740Y-67779060D01*
X129823742Y-67779060D01*
X129883969Y-67781426D01*
X130016949Y-67786651D01*
X130132506Y-67769896D01*
X130208300Y-67758907D01*
X130208304Y-67758906D01*
X130214022Y-67758077D01*
X130219494Y-67756219D01*
X130219496Y-67756219D01*
X130397119Y-67695923D01*
X130402587Y-67694067D01*
X130408448Y-67690785D01*
X130571291Y-67599588D01*
X130576330Y-67596766D01*
X130633938Y-67548855D01*
X130725001Y-67473119D01*
X130729433Y-67469433D01*
X130848282Y-67326531D01*
X130853077Y-67320766D01*
X130853079Y-67320764D01*
X130856766Y-67316330D01*
X130954067Y-67142587D01*
X131018077Y-66954022D01*
X131018923Y-66948191D01*
X131046118Y-66760623D01*
X131046651Y-66756949D01*
X131048142Y-66700000D01*
X131045525Y-66671516D01*
X131412231Y-66671516D01*
X131425255Y-66870223D01*
X131474272Y-67063229D01*
X131557641Y-67244071D01*
X131563708Y-67252656D01*
X131608709Y-67316330D01*
X131672570Y-67406692D01*
X131815210Y-67545645D01*
X131980784Y-67656278D01*
X131986087Y-67658556D01*
X131986090Y-67658558D01*
X132149506Y-67728767D01*
X132163746Y-67734885D01*
X132235276Y-67751071D01*
X132352332Y-67777558D01*
X132352337Y-67777559D01*
X132357969Y-67778833D01*
X132363740Y-67779060D01*
X132363742Y-67779060D01*
X132423969Y-67781426D01*
X132556949Y-67786651D01*
X132672506Y-67769896D01*
X132748300Y-67758907D01*
X132748304Y-67758906D01*
X132754022Y-67758077D01*
X132759494Y-67756219D01*
X132759496Y-67756219D01*
X132937119Y-67695923D01*
X132942587Y-67694067D01*
X132948448Y-67690785D01*
X133111291Y-67599588D01*
X133116330Y-67596766D01*
X133173938Y-67548855D01*
X133265001Y-67473119D01*
X133269433Y-67469433D01*
X133388282Y-67326531D01*
X133393077Y-67320766D01*
X133393079Y-67320764D01*
X133396766Y-67316330D01*
X133494067Y-67142587D01*
X133558077Y-66954022D01*
X133558923Y-66948191D01*
X133586118Y-66760623D01*
X133586651Y-66756949D01*
X133588142Y-66700000D01*
X133585525Y-66671516D01*
X133952231Y-66671516D01*
X133965255Y-66870223D01*
X134014272Y-67063229D01*
X134097641Y-67244071D01*
X134103708Y-67252656D01*
X134148709Y-67316330D01*
X134212570Y-67406692D01*
X134355210Y-67545645D01*
X134520784Y-67656278D01*
X134526087Y-67658556D01*
X134526090Y-67658558D01*
X134689506Y-67728767D01*
X134703746Y-67734885D01*
X134775276Y-67751071D01*
X134892332Y-67777558D01*
X134892337Y-67777559D01*
X134897969Y-67778833D01*
X134903740Y-67779060D01*
X134903742Y-67779060D01*
X134963969Y-67781426D01*
X135096949Y-67786651D01*
X135212506Y-67769896D01*
X135288300Y-67758907D01*
X135288304Y-67758906D01*
X135294022Y-67758077D01*
X135299494Y-67756219D01*
X135299496Y-67756219D01*
X135477119Y-67695923D01*
X135482587Y-67694067D01*
X135488448Y-67690785D01*
X135651291Y-67599588D01*
X135656330Y-67596766D01*
X135713938Y-67548855D01*
X135805001Y-67473119D01*
X135809433Y-67469433D01*
X135928282Y-67326531D01*
X135933077Y-67320766D01*
X135933079Y-67320764D01*
X135936766Y-67316330D01*
X136034067Y-67142587D01*
X136098077Y-66954022D01*
X136098923Y-66948191D01*
X136126118Y-66760623D01*
X136126651Y-66756949D01*
X136128142Y-66700000D01*
X136125525Y-66671516D01*
X136492231Y-66671516D01*
X136505255Y-66870223D01*
X136554272Y-67063229D01*
X136637641Y-67244071D01*
X136643708Y-67252656D01*
X136688709Y-67316330D01*
X136752570Y-67406692D01*
X136895210Y-67545645D01*
X137060784Y-67656278D01*
X137066087Y-67658556D01*
X137066090Y-67658558D01*
X137229506Y-67728767D01*
X137243746Y-67734885D01*
X137315276Y-67751071D01*
X137432332Y-67777558D01*
X137432337Y-67777559D01*
X137437969Y-67778833D01*
X137443740Y-67779060D01*
X137443742Y-67779060D01*
X137503969Y-67781426D01*
X137636949Y-67786651D01*
X137752506Y-67769896D01*
X137828300Y-67758907D01*
X137828304Y-67758906D01*
X137834022Y-67758077D01*
X137839494Y-67756219D01*
X137839496Y-67756219D01*
X138017119Y-67695923D01*
X138022587Y-67694067D01*
X138028448Y-67690785D01*
X138191291Y-67599588D01*
X138196330Y-67596766D01*
X138253938Y-67548855D01*
X138345001Y-67473119D01*
X138349433Y-67469433D01*
X138468282Y-67326531D01*
X138473077Y-67320766D01*
X138473079Y-67320764D01*
X138476766Y-67316330D01*
X138574067Y-67142587D01*
X138638077Y-66954022D01*
X138638923Y-66948191D01*
X138666118Y-66760623D01*
X138666651Y-66756949D01*
X138668142Y-66700000D01*
X138649921Y-66501702D01*
X138643660Y-66479500D01*
X138597436Y-66315604D01*
X138597435Y-66315602D01*
X138595868Y-66310045D01*
X138585634Y-66289292D01*
X138510349Y-66136627D01*
X138510346Y-66136623D01*
X138507794Y-66131447D01*
X138464500Y-66073469D01*
X138392100Y-65976515D01*
X138388647Y-65971891D01*
X138242419Y-65836719D01*
X138237536Y-65833638D01*
X138078886Y-65733537D01*
X138074006Y-65730458D01*
X137889049Y-65656668D01*
X137883389Y-65655542D01*
X137883385Y-65655541D01*
X137699410Y-65618946D01*
X137699405Y-65618946D01*
X137693742Y-65617819D01*
X137687967Y-65617743D01*
X137687963Y-65617743D01*
X137590390Y-65616466D01*
X137494625Y-65615212D01*
X137298368Y-65648936D01*
X137111543Y-65717859D01*
X137106582Y-65720811D01*
X137106581Y-65720811D01*
X137026928Y-65768200D01*
X136940406Y-65819675D01*
X136790690Y-65950972D01*
X136787118Y-65955503D01*
X136691443Y-66076866D01*
X136667407Y-66107355D01*
X136574688Y-66283586D01*
X136515637Y-66473763D01*
X136492231Y-66671516D01*
X136125525Y-66671516D01*
X136109921Y-66501702D01*
X136103660Y-66479500D01*
X136057436Y-66315604D01*
X136057435Y-66315602D01*
X136055868Y-66310045D01*
X136045634Y-66289292D01*
X135970349Y-66136627D01*
X135970346Y-66136623D01*
X135967794Y-66131447D01*
X135924500Y-66073469D01*
X135852100Y-65976515D01*
X135848647Y-65971891D01*
X135702419Y-65836719D01*
X135697536Y-65833638D01*
X135538886Y-65733537D01*
X135534006Y-65730458D01*
X135349049Y-65656668D01*
X135343389Y-65655542D01*
X135343385Y-65655541D01*
X135159410Y-65618946D01*
X135159405Y-65618946D01*
X135153742Y-65617819D01*
X135147967Y-65617743D01*
X135147963Y-65617743D01*
X135050390Y-65616466D01*
X134954625Y-65615212D01*
X134758368Y-65648936D01*
X134571543Y-65717859D01*
X134566582Y-65720811D01*
X134566581Y-65720811D01*
X134486928Y-65768200D01*
X134400406Y-65819675D01*
X134250690Y-65950972D01*
X134247118Y-65955503D01*
X134151443Y-66076866D01*
X134127407Y-66107355D01*
X134034688Y-66283586D01*
X133975637Y-66473763D01*
X133952231Y-66671516D01*
X133585525Y-66671516D01*
X133569921Y-66501702D01*
X133563660Y-66479500D01*
X133517436Y-66315604D01*
X133517435Y-66315602D01*
X133515868Y-66310045D01*
X133505634Y-66289292D01*
X133430349Y-66136627D01*
X133430346Y-66136623D01*
X133427794Y-66131447D01*
X133384500Y-66073469D01*
X133312100Y-65976515D01*
X133308647Y-65971891D01*
X133162419Y-65836719D01*
X133157536Y-65833638D01*
X132998886Y-65733537D01*
X132994006Y-65730458D01*
X132809049Y-65656668D01*
X132803389Y-65655542D01*
X132803385Y-65655541D01*
X132619410Y-65618946D01*
X132619405Y-65618946D01*
X132613742Y-65617819D01*
X132607967Y-65617743D01*
X132607963Y-65617743D01*
X132510390Y-65616466D01*
X132414625Y-65615212D01*
X132218368Y-65648936D01*
X132031543Y-65717859D01*
X132026582Y-65720811D01*
X132026581Y-65720811D01*
X131946928Y-65768200D01*
X131860406Y-65819675D01*
X131710690Y-65950972D01*
X131707118Y-65955503D01*
X131611443Y-66076866D01*
X131587407Y-66107355D01*
X131494688Y-66283586D01*
X131435637Y-66473763D01*
X131412231Y-66671516D01*
X131045525Y-66671516D01*
X131029921Y-66501702D01*
X131023660Y-66479500D01*
X130977436Y-66315604D01*
X130977435Y-66315602D01*
X130975868Y-66310045D01*
X130965634Y-66289292D01*
X130890349Y-66136627D01*
X130890346Y-66136623D01*
X130887794Y-66131447D01*
X130844500Y-66073469D01*
X130772100Y-65976515D01*
X130768647Y-65971891D01*
X130622419Y-65836719D01*
X130617536Y-65833638D01*
X130458886Y-65733537D01*
X130454006Y-65730458D01*
X130269049Y-65656668D01*
X130263389Y-65655542D01*
X130263385Y-65655541D01*
X130079410Y-65618946D01*
X130079405Y-65618946D01*
X130073742Y-65617819D01*
X130067967Y-65617743D01*
X130067963Y-65617743D01*
X129970390Y-65616466D01*
X129874625Y-65615212D01*
X129678368Y-65648936D01*
X129491543Y-65717859D01*
X129486582Y-65720811D01*
X129486581Y-65720811D01*
X129406928Y-65768200D01*
X129320406Y-65819675D01*
X129170690Y-65950972D01*
X129167118Y-65955503D01*
X129071443Y-66076866D01*
X129047407Y-66107355D01*
X128954688Y-66283586D01*
X128895637Y-66473763D01*
X128872231Y-66671516D01*
X128505022Y-66671516D01*
X128489956Y-66507547D01*
X128487859Y-66496233D01*
X128436967Y-66315784D01*
X128432845Y-66305045D01*
X128355422Y-66148047D01*
X128345875Y-66137670D01*
X128339442Y-66139768D01*
X127792022Y-66687188D01*
X127784408Y-66701132D01*
X127054356Y-66701132D01*
X127055592Y-66698868D01*
X127055461Y-66697035D01*
X127051210Y-66690420D01*
X126507054Y-66146264D01*
X126494674Y-66139504D01*
X126488708Y-66143970D01*
X126417841Y-66278668D01*
X126413440Y-66289292D01*
X126357841Y-66468350D01*
X126355449Y-66479604D01*
X126333412Y-66665794D01*
X126333111Y-66677295D01*
X125966056Y-66677295D01*
X125949921Y-66501702D01*
X125943660Y-66479500D01*
X125897436Y-66315604D01*
X125897435Y-66315602D01*
X125895868Y-66310045D01*
X125885634Y-66289292D01*
X125810349Y-66136627D01*
X125810346Y-66136623D01*
X125807794Y-66131447D01*
X125764500Y-66073469D01*
X125692100Y-65976515D01*
X125688647Y-65971891D01*
X125542419Y-65836719D01*
X125537536Y-65833638D01*
X125447636Y-65776915D01*
X126861027Y-65776915D01*
X126864513Y-65785303D01*
X127407188Y-66327978D01*
X127421132Y-66335592D01*
X127422965Y-66335461D01*
X127429580Y-66331210D01*
X127972155Y-65788635D01*
X127978915Y-65776255D01*
X127972885Y-65768200D01*
X127918657Y-65733985D01*
X127908418Y-65728768D01*
X127734274Y-65659291D01*
X127723236Y-65656021D01*
X127539356Y-65619445D01*
X127527910Y-65618242D01*
X127340447Y-65615789D01*
X127328967Y-65616692D01*
X127144195Y-65648441D01*
X127133075Y-65651421D01*
X126957175Y-65716314D01*
X126946797Y-65721264D01*
X126870625Y-65766582D01*
X126861027Y-65776915D01*
X125447636Y-65776915D01*
X125378886Y-65733537D01*
X125374006Y-65730458D01*
X125189049Y-65656668D01*
X125183389Y-65655542D01*
X125183385Y-65655541D01*
X124999410Y-65618946D01*
X124999405Y-65618946D01*
X124993742Y-65617819D01*
X124987967Y-65617743D01*
X124987963Y-65617743D01*
X124890390Y-65616466D01*
X124794625Y-65615212D01*
X124598368Y-65648936D01*
X124411543Y-65717859D01*
X124406582Y-65720811D01*
X124406581Y-65720811D01*
X124326928Y-65768200D01*
X124240406Y-65819675D01*
X124090690Y-65950972D01*
X124087118Y-65955503D01*
X123991443Y-66076866D01*
X123967407Y-66107355D01*
X123874688Y-66283586D01*
X123815637Y-66473763D01*
X123792231Y-66671516D01*
X123425525Y-66671516D01*
X123409921Y-66501702D01*
X123403660Y-66479500D01*
X123357436Y-66315604D01*
X123357435Y-66315602D01*
X123355868Y-66310045D01*
X123345634Y-66289292D01*
X123270349Y-66136627D01*
X123270346Y-66136623D01*
X123267794Y-66131447D01*
X123224500Y-66073469D01*
X123152100Y-65976515D01*
X123148647Y-65971891D01*
X123002419Y-65836719D01*
X122997536Y-65833638D01*
X122838886Y-65733537D01*
X122834006Y-65730458D01*
X122649049Y-65656668D01*
X122643389Y-65655542D01*
X122643385Y-65655541D01*
X122459410Y-65618946D01*
X122459405Y-65618946D01*
X122453742Y-65617819D01*
X122447967Y-65617743D01*
X122447963Y-65617743D01*
X122350390Y-65616466D01*
X122254625Y-65615212D01*
X122058368Y-65648936D01*
X121871543Y-65717859D01*
X121866582Y-65720811D01*
X121866581Y-65720811D01*
X121786928Y-65768200D01*
X121700406Y-65819675D01*
X121550690Y-65950972D01*
X121547118Y-65955503D01*
X121451443Y-66076866D01*
X121427407Y-66107355D01*
X121334688Y-66283586D01*
X121275637Y-66473763D01*
X121252231Y-66671516D01*
X120883500Y-66671516D01*
X120883500Y-66076866D01*
X120876745Y-66014684D01*
X120825615Y-65878295D01*
X120738261Y-65761739D01*
X120621705Y-65674385D01*
X120485316Y-65623255D01*
X120423134Y-65616500D01*
X119176866Y-65616500D01*
X119114684Y-65623255D01*
X118978295Y-65674385D01*
X118861739Y-65761739D01*
X118774385Y-65878295D01*
X118723255Y-66014684D01*
X118716500Y-66076866D01*
X118716500Y-67323134D01*
X116881107Y-67323134D01*
X116883077Y-67320766D01*
X116883079Y-67320764D01*
X116886766Y-67316330D01*
X116984067Y-67142587D01*
X117048077Y-66954022D01*
X117048923Y-66948191D01*
X117076118Y-66760623D01*
X117076651Y-66756949D01*
X117078142Y-66700000D01*
X117059921Y-66501702D01*
X117053660Y-66479500D01*
X117007436Y-66315604D01*
X117007435Y-66315602D01*
X117005868Y-66310045D01*
X116995634Y-66289292D01*
X116920349Y-66136627D01*
X116920346Y-66136623D01*
X116917794Y-66131447D01*
X116874500Y-66073469D01*
X116802100Y-65976515D01*
X116798647Y-65971891D01*
X116652419Y-65836719D01*
X116647536Y-65833638D01*
X116488886Y-65733537D01*
X116484006Y-65730458D01*
X116299049Y-65656668D01*
X116293389Y-65655542D01*
X116293385Y-65655541D01*
X116109410Y-65618946D01*
X116109405Y-65618946D01*
X116103742Y-65617819D01*
X116097967Y-65617743D01*
X116097963Y-65617743D01*
X116000390Y-65616466D01*
X115904625Y-65615212D01*
X115708368Y-65648936D01*
X115521543Y-65717859D01*
X115516582Y-65720811D01*
X115516581Y-65720811D01*
X115436928Y-65768200D01*
X115350406Y-65819675D01*
X115200690Y-65950972D01*
X115197118Y-65955503D01*
X115101443Y-66076866D01*
X115077407Y-66107355D01*
X114984688Y-66283586D01*
X114925637Y-66473763D01*
X114902231Y-66671516D01*
X114535525Y-66671516D01*
X114519921Y-66501702D01*
X114513660Y-66479500D01*
X114467436Y-66315604D01*
X114467435Y-66315602D01*
X114465868Y-66310045D01*
X114455634Y-66289292D01*
X114380349Y-66136627D01*
X114380346Y-66136623D01*
X114377794Y-66131447D01*
X114334500Y-66073469D01*
X114262100Y-65976515D01*
X114258647Y-65971891D01*
X114112419Y-65836719D01*
X114107536Y-65833638D01*
X113948886Y-65733537D01*
X113944006Y-65730458D01*
X113759049Y-65656668D01*
X113753389Y-65655542D01*
X113753385Y-65655541D01*
X113569410Y-65618946D01*
X113569405Y-65618946D01*
X113563742Y-65617819D01*
X113557967Y-65617743D01*
X113557963Y-65617743D01*
X113460390Y-65616466D01*
X113364625Y-65615212D01*
X113168368Y-65648936D01*
X112981543Y-65717859D01*
X112976582Y-65720811D01*
X112976581Y-65720811D01*
X112896928Y-65768200D01*
X112810406Y-65819675D01*
X112660690Y-65950972D01*
X112657118Y-65955503D01*
X112561443Y-66076866D01*
X112537407Y-66107355D01*
X112444688Y-66283586D01*
X112385637Y-66473763D01*
X112362231Y-66671516D01*
X111995525Y-66671516D01*
X111979921Y-66501702D01*
X111973660Y-66479500D01*
X111927436Y-66315604D01*
X111927435Y-66315602D01*
X111925868Y-66310045D01*
X111915634Y-66289292D01*
X111840349Y-66136627D01*
X111840346Y-66136623D01*
X111837794Y-66131447D01*
X111794500Y-66073469D01*
X111722100Y-65976515D01*
X111718647Y-65971891D01*
X111572419Y-65836719D01*
X111567536Y-65833638D01*
X111408886Y-65733537D01*
X111404006Y-65730458D01*
X111219049Y-65656668D01*
X111213389Y-65655542D01*
X111213385Y-65655541D01*
X111029410Y-65618946D01*
X111029405Y-65618946D01*
X111023742Y-65617819D01*
X111017967Y-65617743D01*
X111017963Y-65617743D01*
X110920390Y-65616466D01*
X110824625Y-65615212D01*
X110628368Y-65648936D01*
X110441543Y-65717859D01*
X110436582Y-65720811D01*
X110436581Y-65720811D01*
X110356928Y-65768200D01*
X110270406Y-65819675D01*
X110120690Y-65950972D01*
X110117118Y-65955503D01*
X110021443Y-66076866D01*
X109997407Y-66107355D01*
X109904688Y-66283586D01*
X109845637Y-66473763D01*
X109822231Y-66671516D01*
X109455525Y-66671516D01*
X109439921Y-66501702D01*
X109433660Y-66479500D01*
X109387436Y-66315604D01*
X109387435Y-66315602D01*
X109385868Y-66310045D01*
X109375634Y-66289292D01*
X109300349Y-66136627D01*
X109300346Y-66136623D01*
X109297794Y-66131447D01*
X109254500Y-66073469D01*
X109182100Y-65976515D01*
X109178647Y-65971891D01*
X109032419Y-65836719D01*
X109027536Y-65833638D01*
X108868886Y-65733537D01*
X108864006Y-65730458D01*
X108679049Y-65656668D01*
X108673389Y-65655542D01*
X108673385Y-65655541D01*
X108489410Y-65618946D01*
X108489405Y-65618946D01*
X108483742Y-65617819D01*
X108477967Y-65617743D01*
X108477963Y-65617743D01*
X108380390Y-65616466D01*
X108284625Y-65615212D01*
X108088368Y-65648936D01*
X107901543Y-65717859D01*
X107896582Y-65720811D01*
X107896581Y-65720811D01*
X107816928Y-65768200D01*
X107730406Y-65819675D01*
X107580690Y-65950972D01*
X107577118Y-65955503D01*
X107481443Y-66076866D01*
X107457407Y-66107355D01*
X107364688Y-66283586D01*
X107305637Y-66473763D01*
X107282231Y-66671516D01*
X106915525Y-66671516D01*
X106899921Y-66501702D01*
X106893660Y-66479500D01*
X106847436Y-66315604D01*
X106847435Y-66315602D01*
X106845868Y-66310045D01*
X106835634Y-66289292D01*
X106760349Y-66136627D01*
X106760346Y-66136623D01*
X106757794Y-66131447D01*
X106714500Y-66073469D01*
X106642100Y-65976515D01*
X106638647Y-65971891D01*
X106492419Y-65836719D01*
X106487536Y-65833638D01*
X106328886Y-65733537D01*
X106324006Y-65730458D01*
X106139049Y-65656668D01*
X106133389Y-65655542D01*
X106133385Y-65655541D01*
X105949410Y-65618946D01*
X105949405Y-65618946D01*
X105943742Y-65617819D01*
X105937967Y-65617743D01*
X105937963Y-65617743D01*
X105840390Y-65616466D01*
X105744625Y-65615212D01*
X105548368Y-65648936D01*
X105361543Y-65717859D01*
X105356582Y-65720811D01*
X105356581Y-65720811D01*
X105276928Y-65768200D01*
X105190406Y-65819675D01*
X105040690Y-65950972D01*
X105037118Y-65955503D01*
X104941443Y-66076866D01*
X104917407Y-66107355D01*
X104824688Y-66283586D01*
X104765637Y-66473763D01*
X104742231Y-66671516D01*
X104375525Y-66671516D01*
X104359921Y-66501702D01*
X104353660Y-66479500D01*
X104307436Y-66315604D01*
X104307435Y-66315602D01*
X104305868Y-66310045D01*
X104295634Y-66289292D01*
X104220349Y-66136627D01*
X104220346Y-66136623D01*
X104217794Y-66131447D01*
X104174500Y-66073469D01*
X104102100Y-65976515D01*
X104098647Y-65971891D01*
X103952419Y-65836719D01*
X103947536Y-65833638D01*
X103788886Y-65733537D01*
X103784006Y-65730458D01*
X103599049Y-65656668D01*
X103593389Y-65655542D01*
X103593385Y-65655541D01*
X103409410Y-65618946D01*
X103409405Y-65618946D01*
X103403742Y-65617819D01*
X103397967Y-65617743D01*
X103397963Y-65617743D01*
X103300390Y-65616466D01*
X103204625Y-65615212D01*
X103008368Y-65648936D01*
X102821543Y-65717859D01*
X102816582Y-65720811D01*
X102816581Y-65720811D01*
X102736928Y-65768200D01*
X102650406Y-65819675D01*
X102500690Y-65950972D01*
X102497118Y-65955503D01*
X102401443Y-66076866D01*
X102377407Y-66107355D01*
X102284688Y-66283586D01*
X102225637Y-66473763D01*
X102202231Y-66671516D01*
X101835525Y-66671516D01*
X101819921Y-66501702D01*
X101813660Y-66479500D01*
X101767436Y-66315604D01*
X101767435Y-66315602D01*
X101765868Y-66310045D01*
X101755634Y-66289292D01*
X101680349Y-66136627D01*
X101680346Y-66136623D01*
X101677794Y-66131447D01*
X101634500Y-66073469D01*
X101562100Y-65976515D01*
X101558647Y-65971891D01*
X101412419Y-65836719D01*
X101407536Y-65833638D01*
X101248886Y-65733537D01*
X101244006Y-65730458D01*
X101059049Y-65656668D01*
X101053389Y-65655542D01*
X101053385Y-65655541D01*
X100869410Y-65618946D01*
X100869405Y-65618946D01*
X100863742Y-65617819D01*
X100857967Y-65617743D01*
X100857963Y-65617743D01*
X100760390Y-65616466D01*
X100664625Y-65615212D01*
X100468368Y-65648936D01*
X100281543Y-65717859D01*
X100276582Y-65720811D01*
X100276581Y-65720811D01*
X100196928Y-65768200D01*
X100110406Y-65819675D01*
X99960690Y-65950972D01*
X99957118Y-65955503D01*
X99861443Y-66076866D01*
X99837407Y-66107355D01*
X99744688Y-66283586D01*
X99685637Y-66473763D01*
X99662231Y-66671516D01*
X99293500Y-66671516D01*
X99293500Y-66076866D01*
X99286745Y-66014684D01*
X99235615Y-65878295D01*
X99148261Y-65761739D01*
X99031705Y-65674385D01*
X98895316Y-65623255D01*
X98833134Y-65616500D01*
X97586866Y-65616500D01*
X97524684Y-65623255D01*
X97388295Y-65674385D01*
X97271739Y-65761739D01*
X97184385Y-65878295D01*
X97133255Y-66014684D01*
X97126500Y-66076866D01*
X97126500Y-67323134D01*
X93408500Y-67323134D01*
X93408500Y-63534500D01*
X93428502Y-63466379D01*
X93482158Y-63419886D01*
X93534500Y-63408500D01*
X142265500Y-63408500D01*
X142333621Y-63428502D01*
G37*
%TD.AperFunction*%
%TD*%
M02*
