%TF.GenerationSoftware,KiCad,Pcbnew,(6.0.4)*%
%TF.CreationDate,2022-08-04T23:26:18+09:00*%
%TF.ProjectId,ATMega328_breakout,41544d65-6761-4333-9238-5f627265616b,rev?*%
%TF.SameCoordinates,Original*%
%TF.FileFunction,Copper,L1,Top*%
%TF.FilePolarity,Positive*%
%FSLAX46Y46*%
G04 Gerber Fmt 4.6, Leading zero omitted, Abs format (unit mm)*
G04 Created by KiCad (PCBNEW (6.0.4)) date 2022-08-04 23:26:18*
%MOMM*%
%LPD*%
G01*
G04 APERTURE LIST*
G04 Aperture macros list*
%AMRotRect*
0 Rectangle, with rotation*
0 The origin of the aperture is its center*
0 $1 length*
0 $2 width*
0 $3 Rotation angle, in degrees counterclockwise*
0 Add horizontal line*
21,1,$1,$2,0,0,$3*%
G04 Aperture macros list end*
%TA.AperFunction,ComponentPad*%
%ADD10R,1.150000X1.150000*%
%TD*%
%TA.AperFunction,ComponentPad*%
%ADD11C,1.150000*%
%TD*%
%TA.AperFunction,SMDPad,CuDef*%
%ADD12RotRect,0.600000X1.475000X135.000000*%
%TD*%
%TA.AperFunction,SMDPad,CuDef*%
%ADD13RotRect,0.600000X1.475000X45.000000*%
%TD*%
%TA.AperFunction,ViaPad*%
%ADD14C,2.500000*%
%TD*%
%TA.AperFunction,Conductor*%
%ADD15C,0.250000*%
%TD*%
G04 APERTURE END LIST*
D10*
%TO.P,J1,1,1*%
%TO.N,Net-(IC1-Pad8)*%
X116100000Y-89300000D03*
D11*
%TO.P,J1,2,2*%
%TO.N,Net-(IC1-Pad7)*%
X113560000Y-89300000D03*
%TO.P,J1,3,3*%
%TO.N,Net-(IC1-Pad6)*%
X111020000Y-89300000D03*
%TO.P,J1,4,4*%
%TO.N,GND*%
X108480000Y-89300000D03*
%TO.P,J1,5,5*%
%TO.N,VCC*%
X105940000Y-89300000D03*
%TO.P,J1,6,6*%
%TO.N,Net-(IC1-Pad3)*%
X103400000Y-89300000D03*
%TO.P,J1,7,7*%
%TO.N,Net-(IC1-Pad2)*%
X100860000Y-89300000D03*
%TO.P,J1,8,8*%
%TO.N,Net-(IC1-Pad1)*%
X98320000Y-89300000D03*
%TD*%
D12*
%TO.P,IC1,1,(OC2B/INT1/PTCXY)_PD3*%
%TO.N,Net-(IC1-Pad1)*%
X112923382Y-79116820D03*
%TO.P,IC1,2,(XCK0/T0/PTCXY)_PD4*%
%TO.N,Net-(IC1-Pad2)*%
X113489068Y-79682505D03*
%TO.P,IC1,3,(SDA1/ICP4/ACO/PTCXY)_PE0*%
%TO.N,Net-(IC1-Pad3)*%
X114054753Y-80248190D03*
%TO.P,IC1,4,VCC*%
%TO.N,VCC*%
X114620439Y-80813876D03*
%TO.P,IC1,5,GND_1*%
%TO.N,GND*%
X115186124Y-81379561D03*
%TO.P,IC1,6,(SCL1/T4/PTCXY)_PE1*%
%TO.N,Net-(IC1-Pad6)*%
X115751810Y-81945247D03*
%TO.P,IC1,7,(XTAL1/TOSC1)_PB6*%
%TO.N,Net-(IC1-Pad7)*%
X116317495Y-82510932D03*
%TO.P,IC1,8,(XTAL2/TOSC2)_PB7*%
%TO.N,Net-(IC1-Pad8)*%
X116883180Y-83076618D03*
D13*
%TO.P,IC1,9,(OC0B/T1/PTCXY)_PD5*%
%TO.N,Net-(IC1-Pad9)*%
X118916820Y-83076618D03*
%TO.P,IC1,10,(OC0A/PTCXY/AIN0)_PD6*%
%TO.N,Net-(IC1-Pad10)*%
X119482505Y-82510932D03*
%TO.P,IC1,11,(PTCXY/AIN1)_PD7*%
%TO.N,Net-(IC1-Pad11)*%
X120048190Y-81945247D03*
%TO.P,IC1,12,(ICP1/CLKO/PTCXY)_PB0*%
%TO.N,Net-(IC1-Pad12)*%
X120613876Y-81379561D03*
%TO.P,IC1,13,(OC1A/PTCXY)_PB1*%
%TO.N,Net-(IC1-Pad13)*%
X121179561Y-80813876D03*
%TO.P,IC1,14,(~{SS0}/OC1B/PTCXY)_PB2*%
%TO.N,Net-(IC1-Pad14)*%
X121745247Y-80248190D03*
%TO.P,IC1,15,(MOSI0/TXD1/OC2A/PTCXY)_PB3*%
%TO.N,Net-(IC1-Pad15)*%
X122310932Y-79682505D03*
%TO.P,IC1,16,(MISO0/RXD1/PTCXY)_PB4*%
%TO.N,Net-(IC1-Pad16)*%
X122876618Y-79116820D03*
D12*
%TO.P,IC1,17,PB5_(PTCXY/XCK1/SCK0)*%
%TO.N,Net-(IC1-Pad17)*%
X122876618Y-77083180D03*
%TO.P,IC1,18,AVCC*%
%TO.N,Net-(IC1-Pad18)*%
X122310932Y-76517495D03*
%TO.P,IC1,19,PE2_(ADC6/PTCY/ICP3/~{SS1})*%
%TO.N,Net-(IC1-Pad19)*%
X121745247Y-75951810D03*
%TO.P,IC1,20,AREF*%
%TO.N,Net-(IC1-Pad20)*%
X121179561Y-75386124D03*
%TO.P,IC1,21,GND_2*%
%TO.N,GND*%
X120613876Y-74820439D03*
%TO.P,IC1,22,PE3_(ADC7/PTCY/T3/MOSI1)*%
%TO.N,Net-(IC1-Pad22)*%
X120048190Y-74254753D03*
%TO.P,IC1,23,PC0_(ADC0/PTCY/MISO1)*%
%TO.N,Net-(IC1-Pad23)*%
X119482505Y-73689068D03*
%TO.P,IC1,24,PC1_(ADC1/PTCY/SCK1)*%
%TO.N,Net-(IC1-Pad24)*%
X118916820Y-73123382D03*
D13*
%TO.P,IC1,25,PC2_(ADC2/PTCY)*%
%TO.N,Net-(IC1-Pad25)*%
X116883180Y-73123382D03*
%TO.P,IC1,26,PC3_(ADC3/PTCY)*%
%TO.N,Net-(IC1-Pad26)*%
X116317495Y-73689068D03*
%TO.P,IC1,27,PC4_(ADC4/PTCY/SDA0)*%
%TO.N,Net-(IC1-Pad27)*%
X115751810Y-74254753D03*
%TO.P,IC1,28,PC5_(ADC5/PTCY/SCL0)*%
%TO.N,Net-(IC1-Pad28)*%
X115186124Y-74820439D03*
%TO.P,IC1,29,PC6_(~{RESET})*%
%TO.N,Net-(IC1-Pad29)*%
X114620439Y-75386124D03*
%TO.P,IC1,30,PD0_(PTCXY/OC3A/RXD0)*%
%TO.N,Net-(IC1-Pad30)*%
X114054753Y-75951810D03*
%TO.P,IC1,31,PD1_(PTCXY/OC4A/TXD0)*%
%TO.N,Net-(IC1-Pad31)*%
X113489068Y-76517495D03*
%TO.P,IC1,32,PD2_(PTCXY/INT0/OC3B/OC4B)*%
%TO.N,Net-(IC1-Pad32)*%
X112923382Y-77083180D03*
%TD*%
D10*
%TO.P,J3,1,1*%
%TO.N,Net-(IC1-Pad16)*%
X137490000Y-89300000D03*
D11*
%TO.P,J3,2,2*%
%TO.N,Net-(IC1-Pad15)*%
X134950000Y-89300000D03*
%TO.P,J3,3,3*%
%TO.N,Net-(IC1-Pad14)*%
X132410000Y-89300000D03*
%TO.P,J3,4,4*%
%TO.N,Net-(IC1-Pad13)*%
X129870000Y-89300000D03*
%TO.P,J3,5,5*%
%TO.N,Net-(IC1-Pad12)*%
X127330000Y-89300000D03*
%TO.P,J3,6,6*%
%TO.N,Net-(IC1-Pad11)*%
X124790000Y-89300000D03*
%TO.P,J3,7,7*%
%TO.N,Net-(IC1-Pad10)*%
X122250000Y-89300000D03*
%TO.P,J3,8,8*%
%TO.N,Net-(IC1-Pad9)*%
X119710000Y-89300000D03*
%TD*%
D10*
%TO.P,J4,1,1*%
%TO.N,Net-(IC1-Pad24)*%
X119800000Y-66700000D03*
D11*
%TO.P,J4,2,2*%
%TO.N,Net-(IC1-Pad23)*%
X122340000Y-66700000D03*
%TO.P,J4,3,3*%
%TO.N,Net-(IC1-Pad22)*%
X124880000Y-66700000D03*
%TO.P,J4,4,4*%
%TO.N,GND*%
X127420000Y-66700000D03*
%TO.P,J4,5,5*%
%TO.N,Net-(IC1-Pad20)*%
X129960000Y-66700000D03*
%TO.P,J4,6,6*%
%TO.N,Net-(IC1-Pad19)*%
X132500000Y-66700000D03*
%TO.P,J4,7,7*%
%TO.N,Net-(IC1-Pad18)*%
X135040000Y-66700000D03*
%TO.P,J4,8,8*%
%TO.N,Net-(IC1-Pad17)*%
X137580000Y-66700000D03*
%TD*%
D10*
%TO.P,J2,1,1*%
%TO.N,Net-(IC1-Pad32)*%
X98210000Y-66700000D03*
D11*
%TO.P,J2,2,2*%
%TO.N,Net-(IC1-Pad31)*%
X100750000Y-66700000D03*
%TO.P,J2,3,3*%
%TO.N,Net-(IC1-Pad30)*%
X103290000Y-66700000D03*
%TO.P,J2,4,4*%
%TO.N,Net-(IC1-Pad29)*%
X105830000Y-66700000D03*
%TO.P,J2,5,5*%
%TO.N,Net-(IC1-Pad28)*%
X108370000Y-66700000D03*
%TO.P,J2,6,6*%
%TO.N,Net-(IC1-Pad27)*%
X110910000Y-66700000D03*
%TO.P,J2,7,7*%
%TO.N,Net-(IC1-Pad26)*%
X113450000Y-66700000D03*
%TO.P,J2,8,8*%
%TO.N,Net-(IC1-Pad25)*%
X115990000Y-66700000D03*
%TD*%
D14*
%TO.N,GND*%
X94800000Y-91000000D03*
X94700000Y-64800000D03*
X141100000Y-64800000D03*
X141100000Y-91100000D03*
%TD*%
D15*
%TO.N,Net-(IC1-Pad1)*%
X101900000Y-85700000D02*
X106300000Y-85700000D01*
X98320000Y-89280000D02*
X101900000Y-85700000D01*
X112883180Y-79116820D02*
X112923382Y-79116820D01*
X98320000Y-89300000D02*
X98320000Y-89280000D01*
X106300000Y-85700000D02*
X112883180Y-79116820D01*
%TO.N,Net-(IC1-Pad2)*%
X103660000Y-86500000D02*
X106671573Y-86500000D01*
X100860000Y-89300000D02*
X103660000Y-86500000D01*
X106671573Y-86500000D02*
X113489068Y-79682505D01*
%TO.N,Net-(IC1-Pad3)*%
X114054753Y-80248190D02*
X106902943Y-87400000D01*
X106902943Y-87400000D02*
X105300000Y-87400000D01*
X105300000Y-87400000D02*
X103400000Y-89300000D01*
%TO.N,Net-(IC1-Pad6)*%
X115654753Y-81945247D02*
X111020000Y-86580000D01*
X115751810Y-81945247D02*
X115654753Y-81945247D01*
X111020000Y-86580000D02*
X111020000Y-89300000D01*
%TO.N,Net-(IC1-Pad7)*%
X116317495Y-82510932D02*
X116317495Y-82532505D01*
X113560000Y-85290000D02*
X113560000Y-89300000D01*
X116317495Y-82532505D02*
X113560000Y-85290000D01*
%TO.N,Net-(IC1-Pad8)*%
X116100000Y-83859798D02*
X116100000Y-89300000D01*
X116883180Y-83076618D02*
X116100000Y-83859798D01*
%TO.N,Net-(IC1-Pad9)*%
X119710000Y-83869798D02*
X119710000Y-89300000D01*
X118916820Y-83076618D02*
X119710000Y-83869798D01*
%TO.N,Net-(IC1-Pad10)*%
X122300000Y-85300000D02*
X122300000Y-89250000D01*
X119510932Y-82510932D02*
X122300000Y-85300000D01*
X122300000Y-89250000D02*
X122250000Y-89300000D01*
X119482505Y-82510932D02*
X119510932Y-82510932D01*
%TO.N,Net-(IC1-Pad11)*%
X124790000Y-86687057D02*
X124790000Y-89300000D01*
X120048190Y-81945247D02*
X124790000Y-86687057D01*
%TO.N,Net-(IC1-Pad12)*%
X120679561Y-81379561D02*
X127330000Y-88030000D01*
X127330000Y-88030000D02*
X127330000Y-89300000D01*
X120613876Y-81379561D02*
X120679561Y-81379561D01*
%TO.N,Net-(IC1-Pad13)*%
X129700000Y-89300000D02*
X129870000Y-89300000D01*
X121213876Y-80813876D02*
X129700000Y-89300000D01*
X121179561Y-80813876D02*
X121213876Y-80813876D01*
%TO.N,Net-(IC1-Pad14)*%
X121745247Y-80248190D02*
X128897057Y-87400000D01*
X128897057Y-87400000D02*
X130500000Y-87400000D01*
X132400000Y-89300000D02*
X132410000Y-89300000D01*
X130500000Y-87400000D02*
X132400000Y-89300000D01*
%TO.N,Net-(IC1-Pad15)*%
X132150000Y-86500000D02*
X134950000Y-89300000D01*
X122310932Y-79682505D02*
X129128427Y-86500000D01*
X129128427Y-86500000D02*
X132150000Y-86500000D01*
%TO.N,Net-(IC1-Pad16)*%
X129400000Y-85700000D02*
X133890000Y-85700000D01*
X133890000Y-85700000D02*
X137490000Y-89300000D01*
X122876618Y-79176618D02*
X129400000Y-85700000D01*
X122876618Y-79116820D02*
X122876618Y-79176618D01*
%TO.N,Net-(IC1-Pad17)*%
X122916820Y-77083180D02*
X129200000Y-70800000D01*
X129200000Y-70800000D02*
X133380000Y-70800000D01*
X133380000Y-70800000D02*
X137480000Y-66700000D01*
X122876618Y-77083180D02*
X122916820Y-77083180D01*
%TO.N,Net-(IC1-Pad18)*%
X129000000Y-69800000D02*
X132000000Y-69800000D01*
X122310932Y-76489068D02*
X129000000Y-69800000D01*
X122310932Y-76517495D02*
X122310932Y-76489068D01*
X132000000Y-69800000D02*
X135040000Y-66760000D01*
X135040000Y-66760000D02*
X135040000Y-66700000D01*
%TO.N,Net-(IC1-Pad19)*%
X128897057Y-68800000D02*
X130400000Y-68800000D01*
X121745247Y-75951810D02*
X128897057Y-68800000D01*
X130400000Y-68800000D02*
X132500000Y-66700000D01*
%TO.N,Net-(IC1-Pad20)*%
X121179561Y-75386124D02*
X121179561Y-75380439D01*
X121179561Y-75380439D02*
X129860000Y-66700000D01*
%TO.N,Net-(IC1-Pad22)*%
X120048190Y-74254753D02*
X124880000Y-69422943D01*
X124880000Y-69422943D02*
X124880000Y-66700000D01*
%TO.N,Net-(IC1-Pad23)*%
X119482505Y-73689068D02*
X119482505Y-73517495D01*
X119482505Y-73517495D02*
X122300000Y-70700000D01*
X122300000Y-70700000D02*
X122300000Y-66760000D01*
%TO.N,Net-(IC1-Pad24)*%
X119700000Y-72340202D02*
X118916820Y-73123382D01*
X119700000Y-66700000D02*
X119700000Y-72340202D01*
%TO.N,Net-(IC1-Pad25)*%
X115990000Y-72230202D02*
X115990000Y-66700000D01*
X116883180Y-73123382D02*
X115990000Y-72230202D01*
%TO.N,Net-(IC1-Pad26)*%
X113450000Y-70821574D02*
X113450000Y-66700000D01*
X116317495Y-73689068D02*
X113450000Y-70821574D01*
%TO.N,Net-(IC1-Pad27)*%
X115751810Y-74151810D02*
X110910000Y-69310000D01*
X110910000Y-69310000D02*
X110910000Y-66700000D01*
X115751810Y-74254753D02*
X115751810Y-74151810D01*
%TO.N,Net-(IC1-Pad28)*%
X115186124Y-74820439D02*
X108370000Y-68004315D01*
X108370000Y-68004315D02*
X108370000Y-66700000D01*
%TO.N,Net-(IC1-Pad29)*%
X114620439Y-75386124D02*
X105934315Y-66700000D01*
X105934315Y-66700000D02*
X105830000Y-66700000D01*
%TO.N,Net-(IC1-Pad30)*%
X114054753Y-75951810D02*
X107002943Y-68900000D01*
X103300000Y-66700000D02*
X103290000Y-66700000D01*
X107002943Y-68900000D02*
X105500000Y-68900000D01*
X105500000Y-68900000D02*
X103300000Y-66700000D01*
%TO.N,Net-(IC1-Pad31)*%
X113489068Y-76517495D02*
X106771573Y-69800000D01*
X100750000Y-66850000D02*
X100750000Y-66700000D01*
X106771573Y-69800000D02*
X103700000Y-69800000D01*
X103700000Y-69800000D02*
X100750000Y-66850000D01*
%TO.N,Net-(IC1-Pad32)*%
X98210000Y-66700000D02*
X98210000Y-66710000D01*
X102400000Y-70900000D02*
X106740202Y-70900000D01*
X106740202Y-70900000D02*
X112923382Y-77083180D01*
X98210000Y-66710000D02*
X102400000Y-70900000D01*
%TO.N,VCC*%
X114586124Y-80813876D02*
X106100000Y-89300000D01*
X106100000Y-89300000D02*
X105940000Y-89300000D01*
X114620439Y-80813876D02*
X114586124Y-80813876D01*
%TO.N,GND*%
X120613876Y-74820439D02*
X120679561Y-74820439D01*
X127320000Y-68180000D02*
X127320000Y-66700000D01*
X120679561Y-74820439D02*
X127320000Y-68180000D01*
X115186124Y-81379561D02*
X108480000Y-88085685D01*
X108480000Y-88085685D02*
X108480000Y-89300000D01*
%TD*%
%TA.AperFunction,Conductor*%
%TO.N,GND*%
G36*
X142333621Y-63428502D02*
G01*
X142380114Y-63482158D01*
X142391500Y-63534500D01*
X142391500Y-92265500D01*
X142371498Y-92333621D01*
X142317842Y-92380114D01*
X142265500Y-92391500D01*
X93534500Y-92391500D01*
X93466379Y-92371498D01*
X93419886Y-92317842D01*
X93408500Y-92265500D01*
X93408500Y-67323134D01*
X97126500Y-67323134D01*
X97133255Y-67385316D01*
X97184385Y-67521705D01*
X97271739Y-67638261D01*
X97388295Y-67725615D01*
X97524684Y-67776745D01*
X97586866Y-67783500D01*
X98335406Y-67783500D01*
X98403527Y-67803502D01*
X98424501Y-67820405D01*
X100161514Y-69557419D01*
X101896348Y-71292253D01*
X101903888Y-71300539D01*
X101908000Y-71307018D01*
X101913777Y-71312443D01*
X101957651Y-71353643D01*
X101960493Y-71356398D01*
X101980230Y-71376135D01*
X101983427Y-71378615D01*
X101992447Y-71386318D01*
X102024679Y-71416586D01*
X102031625Y-71420405D01*
X102031628Y-71420407D01*
X102042434Y-71426348D01*
X102058953Y-71437199D01*
X102074959Y-71449614D01*
X102082228Y-71452759D01*
X102082232Y-71452762D01*
X102115537Y-71467174D01*
X102126187Y-71472391D01*
X102164940Y-71493695D01*
X102172615Y-71495666D01*
X102172616Y-71495666D01*
X102184562Y-71498733D01*
X102203267Y-71505137D01*
X102221855Y-71513181D01*
X102229678Y-71514420D01*
X102229688Y-71514423D01*
X102265524Y-71520099D01*
X102277144Y-71522505D01*
X102312289Y-71531528D01*
X102319970Y-71533500D01*
X102340224Y-71533500D01*
X102359934Y-71535051D01*
X102379943Y-71538220D01*
X102387835Y-71537474D01*
X102423961Y-71534059D01*
X102435819Y-71533500D01*
X106425608Y-71533500D01*
X106493729Y-71553502D01*
X106514703Y-71570405D01*
X111640398Y-76696101D01*
X111674424Y-76758413D01*
X111676059Y-76773619D01*
X111676030Y-76773821D01*
X111681665Y-76813169D01*
X111695406Y-76909121D01*
X111695407Y-76909124D01*
X111696679Y-76918007D01*
X111756966Y-77050603D01*
X111761913Y-77056756D01*
X111761915Y-77056759D01*
X111777882Y-77076617D01*
X111796159Y-77099349D01*
X112707715Y-78010905D01*
X112741741Y-78073217D01*
X112736676Y-78144032D01*
X112707715Y-78189095D01*
X111796159Y-79100651D01*
X111794019Y-79103313D01*
X111761915Y-79143241D01*
X111761913Y-79143244D01*
X111756966Y-79149397D01*
X111696679Y-79281993D01*
X111686095Y-79355895D01*
X111681665Y-79386830D01*
X111652208Y-79451427D01*
X111646033Y-79458062D01*
X106074500Y-85029595D01*
X106012188Y-85063621D01*
X105985405Y-85066500D01*
X101978768Y-85066500D01*
X101967585Y-85065973D01*
X101960092Y-85064298D01*
X101952166Y-85064547D01*
X101952165Y-85064547D01*
X101892002Y-85066438D01*
X101888044Y-85066500D01*
X101860144Y-85066500D01*
X101856154Y-85067004D01*
X101844320Y-85067936D01*
X101800111Y-85069326D01*
X101792495Y-85071539D01*
X101792493Y-85071539D01*
X101780652Y-85074979D01*
X101761293Y-85078988D01*
X101759983Y-85079154D01*
X101741203Y-85081526D01*
X101733837Y-85084442D01*
X101733831Y-85084444D01*
X101700098Y-85097800D01*
X101688868Y-85101645D01*
X101672828Y-85106305D01*
X101646407Y-85113981D01*
X101639584Y-85118016D01*
X101628966Y-85124295D01*
X101611213Y-85132992D01*
X101603568Y-85136019D01*
X101592383Y-85140448D01*
X101578705Y-85150386D01*
X101556612Y-85166437D01*
X101546695Y-85172951D01*
X101508638Y-85195458D01*
X101494317Y-85209779D01*
X101479284Y-85222619D01*
X101462893Y-85234528D01*
X101454217Y-85245016D01*
X101434702Y-85268605D01*
X101426712Y-85277384D01*
X98523187Y-88180908D01*
X98460875Y-88214934D01*
X98432442Y-88217802D01*
X98234625Y-88215212D01*
X98038368Y-88248936D01*
X97851543Y-88317859D01*
X97846582Y-88320811D01*
X97846581Y-88320811D01*
X97741221Y-88383494D01*
X97680406Y-88419675D01*
X97530690Y-88550972D01*
X97527118Y-88555503D01*
X97431443Y-88676866D01*
X97407407Y-88707355D01*
X97314688Y-88883586D01*
X97255637Y-89073763D01*
X97232231Y-89271516D01*
X97245255Y-89470223D01*
X97294272Y-89663229D01*
X97377641Y-89844071D01*
X97383708Y-89852656D01*
X97428709Y-89916330D01*
X97492570Y-90006692D01*
X97635210Y-90145645D01*
X97800784Y-90256278D01*
X97806087Y-90258556D01*
X97806090Y-90258558D01*
X97969506Y-90328767D01*
X97983746Y-90334885D01*
X98055276Y-90351071D01*
X98172332Y-90377558D01*
X98172337Y-90377559D01*
X98177969Y-90378833D01*
X98183740Y-90379060D01*
X98183742Y-90379060D01*
X98243969Y-90381426D01*
X98376949Y-90386651D01*
X98492506Y-90369896D01*
X98568300Y-90358907D01*
X98568304Y-90358906D01*
X98574022Y-90358077D01*
X98579494Y-90356219D01*
X98579496Y-90356219D01*
X98757119Y-90295923D01*
X98762587Y-90294067D01*
X98768448Y-90290785D01*
X98931291Y-90199588D01*
X98936330Y-90196766D01*
X98993938Y-90148855D01*
X99085001Y-90073119D01*
X99089433Y-90069433D01*
X99208282Y-89926531D01*
X99213077Y-89920766D01*
X99213079Y-89920764D01*
X99216766Y-89916330D01*
X99314067Y-89742587D01*
X99378077Y-89554022D01*
X99378923Y-89548191D01*
X99406118Y-89360623D01*
X99406651Y-89356949D01*
X99408142Y-89300000D01*
X99398104Y-89190756D01*
X99395688Y-89164464D01*
X99409373Y-89094799D01*
X99432064Y-89063840D01*
X99603146Y-88892758D01*
X99665458Y-88858732D01*
X99736273Y-88863797D01*
X99793109Y-88906344D01*
X99817920Y-88972864D01*
X99812574Y-89019216D01*
X99795637Y-89073763D01*
X99772231Y-89271516D01*
X99785255Y-89470223D01*
X99834272Y-89663229D01*
X99917641Y-89844071D01*
X99923708Y-89852656D01*
X99968709Y-89916330D01*
X100032570Y-90006692D01*
X100175210Y-90145645D01*
X100340784Y-90256278D01*
X100346087Y-90258556D01*
X100346090Y-90258558D01*
X100509506Y-90328767D01*
X100523746Y-90334885D01*
X100595276Y-90351071D01*
X100712332Y-90377558D01*
X100712337Y-90377559D01*
X100717969Y-90378833D01*
X100723740Y-90379060D01*
X100723742Y-90379060D01*
X100783969Y-90381426D01*
X100916949Y-90386651D01*
X101032506Y-90369896D01*
X101108300Y-90358907D01*
X101108304Y-90358906D01*
X101114022Y-90358077D01*
X101119494Y-90356219D01*
X101119496Y-90356219D01*
X101297119Y-90295923D01*
X101302587Y-90294067D01*
X101308448Y-90290785D01*
X101471291Y-90199588D01*
X101476330Y-90196766D01*
X101533938Y-90148855D01*
X101625001Y-90073119D01*
X101629433Y-90069433D01*
X101748282Y-89926531D01*
X101753077Y-89920766D01*
X101753079Y-89920764D01*
X101756766Y-89916330D01*
X101854067Y-89742587D01*
X101918077Y-89554022D01*
X101918923Y-89548191D01*
X101946118Y-89360623D01*
X101946651Y-89356949D01*
X101948142Y-89300000D01*
X101938104Y-89190756D01*
X101937371Y-89182781D01*
X101951056Y-89113116D01*
X101973747Y-89082157D01*
X102134139Y-88921765D01*
X102196451Y-88887739D01*
X102267266Y-88892804D01*
X102324102Y-88935351D01*
X102348913Y-89001871D01*
X102343567Y-89048224D01*
X102335637Y-89073763D01*
X102312231Y-89271516D01*
X102325255Y-89470223D01*
X102374272Y-89663229D01*
X102457641Y-89844071D01*
X102463708Y-89852656D01*
X102508709Y-89916330D01*
X102572570Y-90006692D01*
X102715210Y-90145645D01*
X102880784Y-90256278D01*
X102886087Y-90258556D01*
X102886090Y-90258558D01*
X103049506Y-90328767D01*
X103063746Y-90334885D01*
X103135276Y-90351071D01*
X103252332Y-90377558D01*
X103252337Y-90377559D01*
X103257969Y-90378833D01*
X103263740Y-90379060D01*
X103263742Y-90379060D01*
X103323969Y-90381426D01*
X103456949Y-90386651D01*
X103572506Y-90369896D01*
X103648300Y-90358907D01*
X103648304Y-90358906D01*
X103654022Y-90358077D01*
X103659494Y-90356219D01*
X103659496Y-90356219D01*
X103837119Y-90295923D01*
X103842587Y-90294067D01*
X103848448Y-90290785D01*
X104011291Y-90199588D01*
X104016330Y-90196766D01*
X104073938Y-90148855D01*
X104165001Y-90073119D01*
X104169433Y-90069433D01*
X104288282Y-89926531D01*
X104293077Y-89920766D01*
X104293079Y-89920764D01*
X104296766Y-89916330D01*
X104394067Y-89742587D01*
X104458077Y-89554022D01*
X104458923Y-89548191D01*
X104486118Y-89360623D01*
X104486651Y-89356949D01*
X104488142Y-89300000D01*
X104478104Y-89190756D01*
X104477371Y-89182781D01*
X104491056Y-89113116D01*
X104513747Y-89082157D01*
X104674139Y-88921765D01*
X104736451Y-88887739D01*
X104807266Y-88892804D01*
X104864102Y-88935351D01*
X104888913Y-89001871D01*
X104883567Y-89048224D01*
X104875637Y-89073763D01*
X104852231Y-89271516D01*
X104865255Y-89470223D01*
X104914272Y-89663229D01*
X104997641Y-89844071D01*
X105003708Y-89852656D01*
X105048709Y-89916330D01*
X105112570Y-90006692D01*
X105255210Y-90145645D01*
X105420784Y-90256278D01*
X105426087Y-90258556D01*
X105426090Y-90258558D01*
X105589506Y-90328767D01*
X105603746Y-90334885D01*
X105675276Y-90351071D01*
X105792332Y-90377558D01*
X105792337Y-90377559D01*
X105797969Y-90378833D01*
X105803740Y-90379060D01*
X105803742Y-90379060D01*
X105863969Y-90381426D01*
X105996949Y-90386651D01*
X106112506Y-90369896D01*
X106188300Y-90358907D01*
X106188304Y-90358906D01*
X106194022Y-90358077D01*
X106199494Y-90356219D01*
X106199496Y-90356219D01*
X106377119Y-90295923D01*
X106382587Y-90294067D01*
X106388448Y-90290785D01*
X106509004Y-90223270D01*
X107921091Y-90223270D01*
X107930971Y-90235757D01*
X107956222Y-90252629D01*
X107966330Y-90258117D01*
X108138598Y-90332129D01*
X108149531Y-90335681D01*
X108332398Y-90377060D01*
X108343807Y-90378562D01*
X108531155Y-90385922D01*
X108542637Y-90385320D01*
X108728191Y-90358417D01*
X108739374Y-90355732D01*
X108916911Y-90295467D01*
X108927426Y-90290785D01*
X109029662Y-90233530D01*
X109039526Y-90223452D01*
X109036571Y-90215781D01*
X108492812Y-89672022D01*
X108478868Y-89664408D01*
X108477035Y-89664539D01*
X108470420Y-89668790D01*
X107927287Y-90211923D01*
X107921091Y-90223270D01*
X106509004Y-90223270D01*
X106551291Y-90199588D01*
X106556330Y-90196766D01*
X106613938Y-90148855D01*
X106705001Y-90073119D01*
X106709433Y-90069433D01*
X106828282Y-89926531D01*
X106833077Y-89920766D01*
X106833079Y-89920764D01*
X106836766Y-89916330D01*
X106934067Y-89742587D01*
X106998077Y-89554022D01*
X106998923Y-89548191D01*
X107026118Y-89360623D01*
X107026651Y-89356949D01*
X107027693Y-89317147D01*
X107049471Y-89249573D01*
X107064555Y-89231349D01*
X107185254Y-89110650D01*
X107247566Y-89076624D01*
X107318381Y-89081689D01*
X107375217Y-89124236D01*
X107400028Y-89190756D01*
X107399476Y-89214554D01*
X107393412Y-89265792D01*
X107393111Y-89277295D01*
X107405373Y-89464376D01*
X107407174Y-89475746D01*
X107453323Y-89657462D01*
X107457164Y-89668308D01*
X107535658Y-89838574D01*
X107541410Y-89848538D01*
X107543725Y-89851813D01*
X107554314Y-89860203D01*
X107567616Y-89853174D01*
X108119658Y-89301132D01*
X108844408Y-89301132D01*
X108844539Y-89302965D01*
X108848790Y-89309580D01*
X109391866Y-89852656D01*
X109404246Y-89859416D01*
X109410826Y-89854490D01*
X109470785Y-89747426D01*
X109475467Y-89736911D01*
X109535732Y-89559374D01*
X109538417Y-89548191D01*
X109565616Y-89360597D01*
X109566246Y-89353214D01*
X109567543Y-89303704D01*
X109567300Y-89296305D01*
X109549956Y-89107547D01*
X109547859Y-89096233D01*
X109496967Y-88915784D01*
X109492845Y-88905045D01*
X109415422Y-88748047D01*
X109405875Y-88737670D01*
X109399442Y-88739768D01*
X108852022Y-89287188D01*
X108844408Y-89301132D01*
X108119658Y-89301132D01*
X109032155Y-88388635D01*
X109038915Y-88376255D01*
X109032885Y-88368200D01*
X108978657Y-88333985D01*
X108968418Y-88328768D01*
X108794274Y-88259291D01*
X108783236Y-88256021D01*
X108599356Y-88219445D01*
X108587910Y-88218242D01*
X108400444Y-88215789D01*
X108393233Y-88216356D01*
X108323753Y-88201759D01*
X108273195Y-88151915D01*
X108257610Y-88082650D01*
X108281947Y-88015955D01*
X108294255Y-88001649D01*
X114199679Y-82096225D01*
X114261991Y-82062199D01*
X114293214Y-82061074D01*
X114293214Y-82059956D01*
X114302195Y-82059956D01*
X114311080Y-82061228D01*
X114323933Y-82059387D01*
X114327865Y-82059955D01*
X114328938Y-82059955D01*
X114328938Y-82060110D01*
X114394198Y-82069531D01*
X114447827Y-82116054D01*
X114467791Y-82184186D01*
X114447750Y-82252296D01*
X114430886Y-82273210D01*
X110627747Y-86076348D01*
X110619461Y-86083888D01*
X110612982Y-86088000D01*
X110607557Y-86093777D01*
X110566357Y-86137651D01*
X110563602Y-86140493D01*
X110543865Y-86160230D01*
X110541385Y-86163427D01*
X110533682Y-86172447D01*
X110503414Y-86204679D01*
X110499595Y-86211625D01*
X110499593Y-86211628D01*
X110493652Y-86222434D01*
X110482801Y-86238953D01*
X110470386Y-86254959D01*
X110467241Y-86262228D01*
X110467238Y-86262232D01*
X110452826Y-86295537D01*
X110447609Y-86306187D01*
X110426305Y-86344940D01*
X110424334Y-86352615D01*
X110424334Y-86352616D01*
X110421267Y-86364562D01*
X110414863Y-86383266D01*
X110406819Y-86401855D01*
X110405580Y-86409678D01*
X110405577Y-86409688D01*
X110399901Y-86445524D01*
X110397495Y-86457144D01*
X110390014Y-86486283D01*
X110386500Y-86499970D01*
X110386500Y-86520224D01*
X110384949Y-86539934D01*
X110381780Y-86559943D01*
X110382526Y-86567835D01*
X110385941Y-86603961D01*
X110386500Y-86615819D01*
X110386500Y-88357241D01*
X110366498Y-88425362D01*
X110343577Y-88451973D01*
X110230690Y-88550972D01*
X110227118Y-88555503D01*
X110131443Y-88676866D01*
X110107407Y-88707355D01*
X110014688Y-88883586D01*
X109955637Y-89073763D01*
X109932231Y-89271516D01*
X109945255Y-89470223D01*
X109994272Y-89663229D01*
X110077641Y-89844071D01*
X110083708Y-89852656D01*
X110128709Y-89916330D01*
X110192570Y-90006692D01*
X110335210Y-90145645D01*
X110500784Y-90256278D01*
X110506087Y-90258556D01*
X110506090Y-90258558D01*
X110669506Y-90328767D01*
X110683746Y-90334885D01*
X110755276Y-90351071D01*
X110872332Y-90377558D01*
X110872337Y-90377559D01*
X110877969Y-90378833D01*
X110883740Y-90379060D01*
X110883742Y-90379060D01*
X110943969Y-90381426D01*
X111076949Y-90386651D01*
X111192506Y-90369896D01*
X111268300Y-90358907D01*
X111268304Y-90358906D01*
X111274022Y-90358077D01*
X111279494Y-90356219D01*
X111279496Y-90356219D01*
X111457119Y-90295923D01*
X111462587Y-90294067D01*
X111468448Y-90290785D01*
X111631291Y-90199588D01*
X111636330Y-90196766D01*
X111693938Y-90148855D01*
X111785001Y-90073119D01*
X111789433Y-90069433D01*
X111908282Y-89926531D01*
X111913077Y-89920766D01*
X111913079Y-89920764D01*
X111916766Y-89916330D01*
X112014067Y-89742587D01*
X112078077Y-89554022D01*
X112078923Y-89548191D01*
X112106118Y-89360623D01*
X112106651Y-89356949D01*
X112108142Y-89300000D01*
X112094677Y-89153465D01*
X112090450Y-89107456D01*
X112090449Y-89107453D01*
X112089921Y-89101702D01*
X112087975Y-89094799D01*
X112037436Y-88915604D01*
X112037435Y-88915602D01*
X112035868Y-88910045D01*
X112033314Y-88904865D01*
X111950349Y-88736627D01*
X111950346Y-88736623D01*
X111947794Y-88731447D01*
X111904500Y-88673469D01*
X111832100Y-88576515D01*
X111828647Y-88571891D01*
X111693970Y-88447397D01*
X111657526Y-88386469D01*
X111653500Y-88354873D01*
X111653500Y-86894594D01*
X111673502Y-86826473D01*
X111690405Y-86805499D01*
X112711405Y-85784499D01*
X112773717Y-85750473D01*
X112844532Y-85755538D01*
X112901368Y-85798085D01*
X112926179Y-85864605D01*
X112926500Y-85873594D01*
X112926500Y-88357241D01*
X112906498Y-88425362D01*
X112883577Y-88451973D01*
X112770690Y-88550972D01*
X112767118Y-88555503D01*
X112671443Y-88676866D01*
X112647407Y-88707355D01*
X112554688Y-88883586D01*
X112495637Y-89073763D01*
X112472231Y-89271516D01*
X112485255Y-89470223D01*
X112534272Y-89663229D01*
X112617641Y-89844071D01*
X112623708Y-89852656D01*
X112668709Y-89916330D01*
X112732570Y-90006692D01*
X112875210Y-90145645D01*
X113040784Y-90256278D01*
X113046087Y-90258556D01*
X113046090Y-90258558D01*
X113209506Y-90328767D01*
X113223746Y-90334885D01*
X113295276Y-90351071D01*
X113412332Y-90377558D01*
X113412337Y-90377559D01*
X113417969Y-90378833D01*
X113423740Y-90379060D01*
X113423742Y-90379060D01*
X113483969Y-90381426D01*
X113616949Y-90386651D01*
X113732506Y-90369896D01*
X113808300Y-90358907D01*
X113808304Y-90358906D01*
X113814022Y-90358077D01*
X113819494Y-90356219D01*
X113819496Y-90356219D01*
X113997119Y-90295923D01*
X114002587Y-90294067D01*
X114008448Y-90290785D01*
X114171291Y-90199588D01*
X114176330Y-90196766D01*
X114233938Y-90148855D01*
X114325001Y-90073119D01*
X114329433Y-90069433D01*
X114448282Y-89926531D01*
X114453077Y-89920766D01*
X114453079Y-89920764D01*
X114456766Y-89916330D01*
X114554067Y-89742587D01*
X114618077Y-89554022D01*
X114618923Y-89548191D01*
X114646118Y-89360623D01*
X114646651Y-89356949D01*
X114648142Y-89300000D01*
X114634677Y-89153465D01*
X114630450Y-89107456D01*
X114630449Y-89107453D01*
X114629921Y-89101702D01*
X114627975Y-89094799D01*
X114577436Y-88915604D01*
X114577435Y-88915602D01*
X114575868Y-88910045D01*
X114573314Y-88904865D01*
X114490349Y-88736627D01*
X114490346Y-88736623D01*
X114487794Y-88731447D01*
X114444500Y-88673469D01*
X114372100Y-88576515D01*
X114368647Y-88571891D01*
X114233970Y-88447397D01*
X114197526Y-88386469D01*
X114193500Y-88354873D01*
X114193500Y-85604594D01*
X114213502Y-85536473D01*
X114230405Y-85515499D01*
X115251405Y-84494500D01*
X115313717Y-84460474D01*
X115384533Y-84465539D01*
X115441368Y-84508086D01*
X115466179Y-84574606D01*
X115466500Y-84583595D01*
X115466500Y-88116502D01*
X115446498Y-88184623D01*
X115392842Y-88231116D01*
X115384730Y-88234484D01*
X115325555Y-88256668D01*
X115278295Y-88274385D01*
X115161739Y-88361739D01*
X115074385Y-88478295D01*
X115023255Y-88614684D01*
X115016500Y-88676866D01*
X115016500Y-89923134D01*
X115023255Y-89985316D01*
X115074385Y-90121705D01*
X115161739Y-90238261D01*
X115278295Y-90325615D01*
X115414684Y-90376745D01*
X115476866Y-90383500D01*
X116723134Y-90383500D01*
X116785316Y-90376745D01*
X116921705Y-90325615D01*
X117038261Y-90238261D01*
X117125615Y-90121705D01*
X117176745Y-89985316D01*
X117183500Y-89923134D01*
X117183500Y-88676866D01*
X117176745Y-88614684D01*
X117125615Y-88478295D01*
X117038261Y-88361739D01*
X116921705Y-88274385D01*
X116874445Y-88256668D01*
X116815270Y-88234484D01*
X116758506Y-88191842D01*
X116733806Y-88125281D01*
X116733500Y-88116502D01*
X116733500Y-84377401D01*
X116753502Y-84309280D01*
X116807350Y-84262700D01*
X116843413Y-84246304D01*
X116843419Y-84246300D01*
X116850603Y-84243034D01*
X116856756Y-84238087D01*
X116856759Y-84238085D01*
X116896687Y-84205981D01*
X116899349Y-84203841D01*
X117810905Y-83292285D01*
X117873217Y-83258259D01*
X117944032Y-83263324D01*
X117989095Y-83292285D01*
X118900651Y-84203841D01*
X118903313Y-84205981D01*
X118943241Y-84238085D01*
X118943244Y-84238087D01*
X118949397Y-84243034D01*
X118956585Y-84246302D01*
X119002651Y-84267247D01*
X119056384Y-84313651D01*
X119076500Y-84381948D01*
X119076500Y-88357241D01*
X119056498Y-88425362D01*
X119033577Y-88451973D01*
X118920690Y-88550972D01*
X118917118Y-88555503D01*
X118821443Y-88676866D01*
X118797407Y-88707355D01*
X118704688Y-88883586D01*
X118645637Y-89073763D01*
X118622231Y-89271516D01*
X118635255Y-89470223D01*
X118684272Y-89663229D01*
X118767641Y-89844071D01*
X118773708Y-89852656D01*
X118818709Y-89916330D01*
X118882570Y-90006692D01*
X119025210Y-90145645D01*
X119190784Y-90256278D01*
X119196087Y-90258556D01*
X119196090Y-90258558D01*
X119359506Y-90328767D01*
X119373746Y-90334885D01*
X119445276Y-90351071D01*
X119562332Y-90377558D01*
X119562337Y-90377559D01*
X119567969Y-90378833D01*
X119573740Y-90379060D01*
X119573742Y-90379060D01*
X119633969Y-90381426D01*
X119766949Y-90386651D01*
X119882506Y-90369896D01*
X119958300Y-90358907D01*
X119958304Y-90358906D01*
X119964022Y-90358077D01*
X119969494Y-90356219D01*
X119969496Y-90356219D01*
X120147119Y-90295923D01*
X120152587Y-90294067D01*
X120158448Y-90290785D01*
X120321291Y-90199588D01*
X120326330Y-90196766D01*
X120383938Y-90148855D01*
X120475001Y-90073119D01*
X120479433Y-90069433D01*
X120598282Y-89926531D01*
X120603077Y-89920766D01*
X120603079Y-89920764D01*
X120606766Y-89916330D01*
X120704067Y-89742587D01*
X120768077Y-89554022D01*
X120768923Y-89548191D01*
X120796118Y-89360623D01*
X120796651Y-89356949D01*
X120798142Y-89300000D01*
X120784677Y-89153465D01*
X120780450Y-89107456D01*
X120780449Y-89107453D01*
X120779921Y-89101702D01*
X120777975Y-89094799D01*
X120727436Y-88915604D01*
X120727435Y-88915602D01*
X120725868Y-88910045D01*
X120723314Y-88904865D01*
X120640349Y-88736627D01*
X120640346Y-88736623D01*
X120637794Y-88731447D01*
X120594500Y-88673469D01*
X120522100Y-88576515D01*
X120518647Y-88571891D01*
X120383970Y-88447397D01*
X120347526Y-88386469D01*
X120343500Y-88354873D01*
X120343500Y-84543594D01*
X120363502Y-84475473D01*
X120417158Y-84428980D01*
X120487432Y-84418876D01*
X120552012Y-84448370D01*
X120558595Y-84454499D01*
X121629595Y-85525500D01*
X121663621Y-85587812D01*
X121666500Y-85614595D01*
X121666500Y-88315373D01*
X121646498Y-88383494D01*
X121614794Y-88417064D01*
X121610406Y-88419675D01*
X121460690Y-88550972D01*
X121457118Y-88555503D01*
X121361443Y-88676866D01*
X121337407Y-88707355D01*
X121244688Y-88883586D01*
X121185637Y-89073763D01*
X121162231Y-89271516D01*
X121175255Y-89470223D01*
X121224272Y-89663229D01*
X121307641Y-89844071D01*
X121313708Y-89852656D01*
X121358709Y-89916330D01*
X121422570Y-90006692D01*
X121565210Y-90145645D01*
X121730784Y-90256278D01*
X121736087Y-90258556D01*
X121736090Y-90258558D01*
X121899506Y-90328767D01*
X121913746Y-90334885D01*
X121985276Y-90351071D01*
X122102332Y-90377558D01*
X122102337Y-90377559D01*
X122107969Y-90378833D01*
X122113740Y-90379060D01*
X122113742Y-90379060D01*
X122173969Y-90381426D01*
X122306949Y-90386651D01*
X122422506Y-90369896D01*
X122498300Y-90358907D01*
X122498304Y-90358906D01*
X122504022Y-90358077D01*
X122509494Y-90356219D01*
X122509496Y-90356219D01*
X122687119Y-90295923D01*
X122692587Y-90294067D01*
X122698448Y-90290785D01*
X122861291Y-90199588D01*
X122866330Y-90196766D01*
X122923938Y-90148855D01*
X123015001Y-90073119D01*
X123019433Y-90069433D01*
X123138282Y-89926531D01*
X123143077Y-89920766D01*
X123143079Y-89920764D01*
X123146766Y-89916330D01*
X123244067Y-89742587D01*
X123308077Y-89554022D01*
X123308923Y-89548191D01*
X123336118Y-89360623D01*
X123336651Y-89356949D01*
X123338142Y-89300000D01*
X123324677Y-89153465D01*
X123320450Y-89107456D01*
X123320449Y-89107453D01*
X123319921Y-89101702D01*
X123317975Y-89094799D01*
X123267436Y-88915604D01*
X123267435Y-88915602D01*
X123265868Y-88910045D01*
X123263314Y-88904865D01*
X123180349Y-88736627D01*
X123180346Y-88736623D01*
X123177794Y-88731447D01*
X123134500Y-88673469D01*
X123062100Y-88576515D01*
X123058647Y-88571891D01*
X123054409Y-88567973D01*
X123054405Y-88567969D01*
X122973971Y-88493616D01*
X122937526Y-88432688D01*
X122933500Y-88401092D01*
X122933500Y-86030652D01*
X122953502Y-85962531D01*
X123007158Y-85916038D01*
X123077432Y-85905934D01*
X123142012Y-85935428D01*
X123148595Y-85941557D01*
X124119595Y-86912557D01*
X124153621Y-86974869D01*
X124156500Y-87001652D01*
X124156500Y-88357241D01*
X124136498Y-88425362D01*
X124113577Y-88451973D01*
X124000690Y-88550972D01*
X123997118Y-88555503D01*
X123901443Y-88676866D01*
X123877407Y-88707355D01*
X123784688Y-88883586D01*
X123725637Y-89073763D01*
X123702231Y-89271516D01*
X123715255Y-89470223D01*
X123764272Y-89663229D01*
X123847641Y-89844071D01*
X123853708Y-89852656D01*
X123898709Y-89916330D01*
X123962570Y-90006692D01*
X124105210Y-90145645D01*
X124270784Y-90256278D01*
X124276087Y-90258556D01*
X124276090Y-90258558D01*
X124439506Y-90328767D01*
X124453746Y-90334885D01*
X124525276Y-90351071D01*
X124642332Y-90377558D01*
X124642337Y-90377559D01*
X124647969Y-90378833D01*
X124653740Y-90379060D01*
X124653742Y-90379060D01*
X124713969Y-90381426D01*
X124846949Y-90386651D01*
X124962506Y-90369896D01*
X125038300Y-90358907D01*
X125038304Y-90358906D01*
X125044022Y-90358077D01*
X125049494Y-90356219D01*
X125049496Y-90356219D01*
X125227119Y-90295923D01*
X125232587Y-90294067D01*
X125238448Y-90290785D01*
X125401291Y-90199588D01*
X125406330Y-90196766D01*
X125463938Y-90148855D01*
X125555001Y-90073119D01*
X125559433Y-90069433D01*
X125678282Y-89926531D01*
X125683077Y-89920766D01*
X125683079Y-89920764D01*
X125686766Y-89916330D01*
X125784067Y-89742587D01*
X125848077Y-89554022D01*
X125848923Y-89548191D01*
X125876118Y-89360623D01*
X125876651Y-89356949D01*
X125878142Y-89300000D01*
X125864677Y-89153465D01*
X125860450Y-89107456D01*
X125860449Y-89107453D01*
X125859921Y-89101702D01*
X125857975Y-89094799D01*
X125807436Y-88915604D01*
X125807435Y-88915602D01*
X125805868Y-88910045D01*
X125803314Y-88904865D01*
X125720349Y-88736627D01*
X125720346Y-88736623D01*
X125717794Y-88731447D01*
X125674500Y-88673469D01*
X125602100Y-88576515D01*
X125598647Y-88571891D01*
X125463970Y-88447397D01*
X125427526Y-88386469D01*
X125423500Y-88354873D01*
X125423500Y-87323595D01*
X125443502Y-87255474D01*
X125497158Y-87208981D01*
X125567432Y-87198877D01*
X125632012Y-87228371D01*
X125638595Y-87234500D01*
X126659595Y-88255500D01*
X126693621Y-88317812D01*
X126696500Y-88344595D01*
X126696500Y-88357241D01*
X126676498Y-88425362D01*
X126653577Y-88451973D01*
X126540690Y-88550972D01*
X126537118Y-88555503D01*
X126441443Y-88676866D01*
X126417407Y-88707355D01*
X126324688Y-88883586D01*
X126265637Y-89073763D01*
X126242231Y-89271516D01*
X126255255Y-89470223D01*
X126304272Y-89663229D01*
X126387641Y-89844071D01*
X126393708Y-89852656D01*
X126438709Y-89916330D01*
X126502570Y-90006692D01*
X126645210Y-90145645D01*
X126810784Y-90256278D01*
X126816087Y-90258556D01*
X126816090Y-90258558D01*
X126979506Y-90328767D01*
X126993746Y-90334885D01*
X127065276Y-90351071D01*
X127182332Y-90377558D01*
X127182337Y-90377559D01*
X127187969Y-90378833D01*
X127193740Y-90379060D01*
X127193742Y-90379060D01*
X127253969Y-90381426D01*
X127386949Y-90386651D01*
X127502506Y-90369896D01*
X127578300Y-90358907D01*
X127578304Y-90358906D01*
X127584022Y-90358077D01*
X127589494Y-90356219D01*
X127589496Y-90356219D01*
X127767119Y-90295923D01*
X127772587Y-90294067D01*
X127778448Y-90290785D01*
X127941291Y-90199588D01*
X127946330Y-90196766D01*
X128003938Y-90148855D01*
X128095001Y-90073119D01*
X128099433Y-90069433D01*
X128218282Y-89926531D01*
X128223077Y-89920766D01*
X128223079Y-89920764D01*
X128226766Y-89916330D01*
X128324067Y-89742587D01*
X128388077Y-89554022D01*
X128388923Y-89548191D01*
X128416118Y-89360623D01*
X128416651Y-89356949D01*
X128418142Y-89300000D01*
X128410982Y-89222076D01*
X128424667Y-89152411D01*
X128473843Y-89101203D01*
X128542898Y-89084712D01*
X128609906Y-89108172D01*
X128625548Y-89121452D01*
X128749162Y-89245066D01*
X128783188Y-89307378D01*
X128785796Y-89325915D01*
X128795255Y-89470223D01*
X128844272Y-89663229D01*
X128927641Y-89844071D01*
X128933708Y-89852656D01*
X128978709Y-89916330D01*
X129042570Y-90006692D01*
X129185210Y-90145645D01*
X129350784Y-90256278D01*
X129356087Y-90258556D01*
X129356090Y-90258558D01*
X129519506Y-90328767D01*
X129533746Y-90334885D01*
X129605276Y-90351071D01*
X129722332Y-90377558D01*
X129722337Y-90377559D01*
X129727969Y-90378833D01*
X129733740Y-90379060D01*
X129733742Y-90379060D01*
X129793969Y-90381426D01*
X129926949Y-90386651D01*
X130042506Y-90369896D01*
X130118300Y-90358907D01*
X130118304Y-90358906D01*
X130124022Y-90358077D01*
X130129494Y-90356219D01*
X130129496Y-90356219D01*
X130307119Y-90295923D01*
X130312587Y-90294067D01*
X130318448Y-90290785D01*
X130481291Y-90199588D01*
X130486330Y-90196766D01*
X130543938Y-90148855D01*
X130635001Y-90073119D01*
X130639433Y-90069433D01*
X130758282Y-89926531D01*
X130763077Y-89920766D01*
X130763079Y-89920764D01*
X130766766Y-89916330D01*
X130864067Y-89742587D01*
X130928077Y-89554022D01*
X130928923Y-89548191D01*
X130956118Y-89360623D01*
X130956651Y-89356949D01*
X130958142Y-89300000D01*
X130944677Y-89153465D01*
X130940450Y-89107456D01*
X130940449Y-89107453D01*
X130939921Y-89101702D01*
X130927266Y-89056831D01*
X130928026Y-88985838D01*
X130967047Y-88926526D01*
X131031940Y-88897727D01*
X131102102Y-88908582D01*
X131137630Y-88933534D01*
X131295249Y-89091153D01*
X131329275Y-89153465D01*
X131331281Y-89195056D01*
X131322231Y-89271516D01*
X131335255Y-89470223D01*
X131384272Y-89663229D01*
X131467641Y-89844071D01*
X131473708Y-89852656D01*
X131518709Y-89916330D01*
X131582570Y-90006692D01*
X131725210Y-90145645D01*
X131890784Y-90256278D01*
X131896087Y-90258556D01*
X131896090Y-90258558D01*
X132059506Y-90328767D01*
X132073746Y-90334885D01*
X132145276Y-90351071D01*
X132262332Y-90377558D01*
X132262337Y-90377559D01*
X132267969Y-90378833D01*
X132273740Y-90379060D01*
X132273742Y-90379060D01*
X132333969Y-90381426D01*
X132466949Y-90386651D01*
X132582506Y-90369896D01*
X132658300Y-90358907D01*
X132658304Y-90358906D01*
X132664022Y-90358077D01*
X132669494Y-90356219D01*
X132669496Y-90356219D01*
X132847119Y-90295923D01*
X132852587Y-90294067D01*
X132858448Y-90290785D01*
X133021291Y-90199588D01*
X133026330Y-90196766D01*
X133083938Y-90148855D01*
X133175001Y-90073119D01*
X133179433Y-90069433D01*
X133298282Y-89926531D01*
X133303077Y-89920766D01*
X133303079Y-89920764D01*
X133306766Y-89916330D01*
X133404067Y-89742587D01*
X133468077Y-89554022D01*
X133468923Y-89548191D01*
X133496118Y-89360623D01*
X133496651Y-89356949D01*
X133498142Y-89300000D01*
X133484677Y-89153465D01*
X133480450Y-89107456D01*
X133480449Y-89107453D01*
X133479921Y-89101702D01*
X133463338Y-89042903D01*
X133464098Y-88971911D01*
X133503119Y-88912600D01*
X133568012Y-88883800D01*
X133638173Y-88894655D01*
X133673702Y-88919607D01*
X133836307Y-89082212D01*
X133870333Y-89144524D01*
X133872339Y-89186116D01*
X133862231Y-89271516D01*
X133875255Y-89470223D01*
X133924272Y-89663229D01*
X134007641Y-89844071D01*
X134013708Y-89852656D01*
X134058709Y-89916330D01*
X134122570Y-90006692D01*
X134265210Y-90145645D01*
X134430784Y-90256278D01*
X134436087Y-90258556D01*
X134436090Y-90258558D01*
X134599506Y-90328767D01*
X134613746Y-90334885D01*
X134685276Y-90351071D01*
X134802332Y-90377558D01*
X134802337Y-90377559D01*
X134807969Y-90378833D01*
X134813740Y-90379060D01*
X134813742Y-90379060D01*
X134873969Y-90381426D01*
X135006949Y-90386651D01*
X135122506Y-90369896D01*
X135198300Y-90358907D01*
X135198304Y-90358906D01*
X135204022Y-90358077D01*
X135209494Y-90356219D01*
X135209496Y-90356219D01*
X135387119Y-90295923D01*
X135392587Y-90294067D01*
X135398448Y-90290785D01*
X135561291Y-90199588D01*
X135566330Y-90196766D01*
X135623938Y-90148855D01*
X135715001Y-90073119D01*
X135719433Y-90069433D01*
X135838282Y-89926531D01*
X135843077Y-89920766D01*
X135843079Y-89920764D01*
X135846766Y-89916330D01*
X135944067Y-89742587D01*
X136008077Y-89554022D01*
X136008923Y-89548191D01*
X136036118Y-89360623D01*
X136036651Y-89356949D01*
X136038142Y-89300000D01*
X136024677Y-89153465D01*
X136020450Y-89107456D01*
X136020449Y-89107453D01*
X136019921Y-89101702D01*
X136003338Y-89042903D01*
X136004098Y-88971911D01*
X136043119Y-88912600D01*
X136108012Y-88883800D01*
X136178173Y-88894655D01*
X136213702Y-88919607D01*
X136369595Y-89075500D01*
X136403621Y-89137812D01*
X136406500Y-89164595D01*
X136406500Y-89923134D01*
X136413255Y-89985316D01*
X136464385Y-90121705D01*
X136551739Y-90238261D01*
X136668295Y-90325615D01*
X136804684Y-90376745D01*
X136866866Y-90383500D01*
X138113134Y-90383500D01*
X138175316Y-90376745D01*
X138311705Y-90325615D01*
X138428261Y-90238261D01*
X138515615Y-90121705D01*
X138566745Y-89985316D01*
X138573500Y-89923134D01*
X138573500Y-88676866D01*
X138566745Y-88614684D01*
X138515615Y-88478295D01*
X138428261Y-88361739D01*
X138311705Y-88274385D01*
X138175316Y-88223255D01*
X138113134Y-88216500D01*
X137354594Y-88216500D01*
X137286473Y-88196498D01*
X137265499Y-88179595D01*
X134393652Y-85307747D01*
X134386112Y-85299461D01*
X134382000Y-85292982D01*
X134332348Y-85246356D01*
X134329507Y-85243602D01*
X134309770Y-85223865D01*
X134306573Y-85221385D01*
X134297551Y-85213680D01*
X134293397Y-85209779D01*
X134265321Y-85183414D01*
X134258375Y-85179595D01*
X134258372Y-85179593D01*
X134247566Y-85173652D01*
X134231047Y-85162801D01*
X134230583Y-85162441D01*
X134215041Y-85150386D01*
X134207772Y-85147241D01*
X134207768Y-85147238D01*
X134174463Y-85132826D01*
X134163813Y-85127609D01*
X134125060Y-85106305D01*
X134105437Y-85101267D01*
X134086734Y-85094863D01*
X134075420Y-85089967D01*
X134075419Y-85089967D01*
X134068145Y-85086819D01*
X134060322Y-85085580D01*
X134060312Y-85085577D01*
X134024476Y-85079901D01*
X134012856Y-85077495D01*
X133977711Y-85068472D01*
X133977710Y-85068472D01*
X133970030Y-85066500D01*
X133949776Y-85066500D01*
X133930065Y-85064949D01*
X133921681Y-85063621D01*
X133910057Y-85061780D01*
X133880786Y-85064547D01*
X133866039Y-85065941D01*
X133854181Y-85066500D01*
X129714595Y-85066500D01*
X129646474Y-85046498D01*
X129625500Y-85029595D01*
X124155775Y-79559870D01*
X124121749Y-79497558D01*
X124120142Y-79452915D01*
X124122698Y-79435066D01*
X124122698Y-79435061D01*
X124123970Y-79426179D01*
X124104594Y-79290878D01*
X124104593Y-79290876D01*
X124103321Y-79281993D01*
X124043034Y-79149397D01*
X124038087Y-79143244D01*
X124038085Y-79143241D01*
X124005981Y-79103313D01*
X124003841Y-79100651D01*
X123092285Y-78189095D01*
X123058259Y-78126783D01*
X123063324Y-78055968D01*
X123092285Y-78010905D01*
X124003841Y-77099349D01*
X124022118Y-77076617D01*
X124038085Y-77056759D01*
X124038087Y-77056756D01*
X124043034Y-77050603D01*
X124103321Y-76918007D01*
X124118335Y-76813169D01*
X124147792Y-76748572D01*
X124153967Y-76741937D01*
X129425499Y-71470405D01*
X129487811Y-71436379D01*
X129514594Y-71433500D01*
X133301233Y-71433500D01*
X133312416Y-71434027D01*
X133319909Y-71435702D01*
X133327835Y-71435453D01*
X133327836Y-71435453D01*
X133387986Y-71433562D01*
X133391945Y-71433500D01*
X133419856Y-71433500D01*
X133423791Y-71433003D01*
X133423856Y-71432995D01*
X133435693Y-71432062D01*
X133467951Y-71431048D01*
X133471970Y-71430922D01*
X133479889Y-71430673D01*
X133499343Y-71425021D01*
X133518700Y-71421013D01*
X133530930Y-71419468D01*
X133530931Y-71419468D01*
X133538797Y-71418474D01*
X133546168Y-71415555D01*
X133546170Y-71415555D01*
X133579912Y-71402196D01*
X133591142Y-71398351D01*
X133625983Y-71388229D01*
X133625984Y-71388229D01*
X133633593Y-71386018D01*
X133640412Y-71381985D01*
X133640417Y-71381983D01*
X133651028Y-71375707D01*
X133668776Y-71367012D01*
X133687617Y-71359552D01*
X133723387Y-71333564D01*
X133733307Y-71327048D01*
X133764535Y-71308580D01*
X133764538Y-71308578D01*
X133771362Y-71304542D01*
X133785683Y-71290221D01*
X133800717Y-71277380D01*
X133810694Y-71270131D01*
X133817107Y-71265472D01*
X133845298Y-71231395D01*
X133853288Y-71222616D01*
X137273937Y-67801967D01*
X137336249Y-67767941D01*
X137390839Y-67768169D01*
X137426297Y-67776192D01*
X137437969Y-67778833D01*
X137443740Y-67779060D01*
X137443742Y-67779060D01*
X137503969Y-67781426D01*
X137636949Y-67786651D01*
X137752506Y-67769896D01*
X137828300Y-67758907D01*
X137828304Y-67758906D01*
X137834022Y-67758077D01*
X137839494Y-67756219D01*
X137839496Y-67756219D01*
X137945517Y-67720229D01*
X138022587Y-67694067D01*
X138029705Y-67690081D01*
X138191291Y-67599588D01*
X138196330Y-67596766D01*
X138216591Y-67579916D01*
X138345001Y-67473119D01*
X138349433Y-67469433D01*
X138468282Y-67326531D01*
X138473077Y-67320766D01*
X138473079Y-67320764D01*
X138476766Y-67316330D01*
X138574067Y-67142587D01*
X138627187Y-66986102D01*
X138636219Y-66959496D01*
X138636219Y-66959494D01*
X138638077Y-66954022D01*
X138640690Y-66936005D01*
X138657314Y-66821343D01*
X138666651Y-66756949D01*
X138668142Y-66700000D01*
X138649921Y-66501702D01*
X138643660Y-66479500D01*
X138597436Y-66315604D01*
X138597435Y-66315602D01*
X138595868Y-66310045D01*
X138585634Y-66289292D01*
X138510349Y-66136627D01*
X138510346Y-66136623D01*
X138507794Y-66131447D01*
X138464500Y-66073469D01*
X138392100Y-65976515D01*
X138388647Y-65971891D01*
X138242419Y-65836719D01*
X138237536Y-65833638D01*
X138078886Y-65733537D01*
X138074006Y-65730458D01*
X137889049Y-65656668D01*
X137883389Y-65655542D01*
X137883385Y-65655541D01*
X137699410Y-65618946D01*
X137699405Y-65618946D01*
X137693742Y-65617819D01*
X137687967Y-65617743D01*
X137687963Y-65617743D01*
X137590390Y-65616466D01*
X137494625Y-65615212D01*
X137298368Y-65648936D01*
X137111543Y-65717859D01*
X137106582Y-65720811D01*
X137106581Y-65720811D01*
X137026928Y-65768200D01*
X136940406Y-65819675D01*
X136790690Y-65950972D01*
X136787118Y-65955503D01*
X136691443Y-66076866D01*
X136667407Y-66107355D01*
X136574688Y-66283586D01*
X136515637Y-66473763D01*
X136492231Y-66671516D01*
X136492609Y-66677282D01*
X136495900Y-66727495D01*
X136480396Y-66796778D01*
X136459265Y-66824831D01*
X136326955Y-66957141D01*
X136264643Y-66991167D01*
X136193828Y-66986102D01*
X136136992Y-66943555D01*
X136112181Y-66877035D01*
X136113164Y-66849966D01*
X136113533Y-66847423D01*
X136126651Y-66756949D01*
X136128142Y-66700000D01*
X136109921Y-66501702D01*
X136103660Y-66479500D01*
X136057436Y-66315604D01*
X136057435Y-66315602D01*
X136055868Y-66310045D01*
X136045634Y-66289292D01*
X135970349Y-66136627D01*
X135970346Y-66136623D01*
X135967794Y-66131447D01*
X135924500Y-66073469D01*
X135852100Y-65976515D01*
X135848647Y-65971891D01*
X135702419Y-65836719D01*
X135697536Y-65833638D01*
X135538886Y-65733537D01*
X135534006Y-65730458D01*
X135349049Y-65656668D01*
X135343389Y-65655542D01*
X135343385Y-65655541D01*
X135159410Y-65618946D01*
X135159405Y-65618946D01*
X135153742Y-65617819D01*
X135147967Y-65617743D01*
X135147963Y-65617743D01*
X135050390Y-65616466D01*
X134954625Y-65615212D01*
X134758368Y-65648936D01*
X134571543Y-65717859D01*
X134566582Y-65720811D01*
X134566581Y-65720811D01*
X134486928Y-65768200D01*
X134400406Y-65819675D01*
X134250690Y-65950972D01*
X134247118Y-65955503D01*
X134151443Y-66076866D01*
X134127407Y-66107355D01*
X134034688Y-66283586D01*
X133975637Y-66473763D01*
X133952231Y-66671516D01*
X133952609Y-66677282D01*
X133963761Y-66847423D01*
X133964987Y-66866135D01*
X133965255Y-66870223D01*
X133964452Y-66870276D01*
X133955953Y-66936005D01*
X133929702Y-66974393D01*
X133738739Y-67165356D01*
X133676427Y-67199382D01*
X133605612Y-67194317D01*
X133548776Y-67151770D01*
X133523965Y-67085250D01*
X133530331Y-67035760D01*
X133556218Y-66959500D01*
X133556219Y-66959494D01*
X133558077Y-66954022D01*
X133560690Y-66936005D01*
X133577314Y-66821343D01*
X133586651Y-66756949D01*
X133588142Y-66700000D01*
X133569921Y-66501702D01*
X133563660Y-66479500D01*
X133517436Y-66315604D01*
X133517435Y-66315602D01*
X133515868Y-66310045D01*
X133505634Y-66289292D01*
X133430349Y-66136627D01*
X133430346Y-66136623D01*
X133427794Y-66131447D01*
X133384500Y-66073469D01*
X133312100Y-65976515D01*
X133308647Y-65971891D01*
X133162419Y-65836719D01*
X133157536Y-65833638D01*
X132998886Y-65733537D01*
X132994006Y-65730458D01*
X132809049Y-65656668D01*
X132803389Y-65655542D01*
X132803385Y-65655541D01*
X132619410Y-65618946D01*
X132619405Y-65618946D01*
X132613742Y-65617819D01*
X132607967Y-65617743D01*
X132607963Y-65617743D01*
X132510390Y-65616466D01*
X132414625Y-65615212D01*
X132218368Y-65648936D01*
X132031543Y-65717859D01*
X132026582Y-65720811D01*
X132026581Y-65720811D01*
X131946928Y-65768200D01*
X131860406Y-65819675D01*
X131710690Y-65950972D01*
X131707118Y-65955503D01*
X131611443Y-66076866D01*
X131587407Y-66107355D01*
X131494688Y-66283586D01*
X131435637Y-66473763D01*
X131412231Y-66671516D01*
X131412609Y-66677282D01*
X131422051Y-66821343D01*
X131406547Y-66890626D01*
X131385416Y-66918679D01*
X131228383Y-67075712D01*
X131166071Y-67109738D01*
X131095256Y-67104673D01*
X131038420Y-67062126D01*
X131013609Y-66995606D01*
X131016697Y-66958087D01*
X131018077Y-66954022D01*
X131046651Y-66756949D01*
X131048142Y-66700000D01*
X131029921Y-66501702D01*
X131023660Y-66479500D01*
X130977436Y-66315604D01*
X130977435Y-66315602D01*
X130975868Y-66310045D01*
X130965634Y-66289292D01*
X130890349Y-66136627D01*
X130890346Y-66136623D01*
X130887794Y-66131447D01*
X130844500Y-66073469D01*
X130772100Y-65976515D01*
X130768647Y-65971891D01*
X130622419Y-65836719D01*
X130617536Y-65833638D01*
X130458886Y-65733537D01*
X130454006Y-65730458D01*
X130269049Y-65656668D01*
X130263389Y-65655542D01*
X130263385Y-65655541D01*
X130079410Y-65618946D01*
X130079405Y-65618946D01*
X130073742Y-65617819D01*
X130067967Y-65617743D01*
X130067963Y-65617743D01*
X129970390Y-65616466D01*
X129874625Y-65615212D01*
X129678368Y-65648936D01*
X129491543Y-65717859D01*
X129486582Y-65720811D01*
X129486581Y-65720811D01*
X129406928Y-65768200D01*
X129320406Y-65819675D01*
X129170690Y-65950972D01*
X129167118Y-65955503D01*
X129071443Y-66076866D01*
X129047407Y-66107355D01*
X128954688Y-66283586D01*
X128895637Y-66473763D01*
X128872231Y-66671516D01*
X128872609Y-66677282D01*
X128875900Y-66727495D01*
X128860396Y-66796778D01*
X128839265Y-66824831D01*
X128706364Y-66957732D01*
X128644052Y-66991758D01*
X128573237Y-66986693D01*
X128516401Y-66944146D01*
X128491590Y-66877626D01*
X128492573Y-66850557D01*
X128505616Y-66760597D01*
X128506246Y-66753214D01*
X128507543Y-66703704D01*
X128507300Y-66696305D01*
X128489956Y-66507547D01*
X128487859Y-66496233D01*
X128436967Y-66315784D01*
X128432845Y-66305045D01*
X128355422Y-66148047D01*
X128345875Y-66137670D01*
X128339442Y-66139768D01*
X126867287Y-67611923D01*
X126861091Y-67623270D01*
X126870971Y-67635757D01*
X126896222Y-67652629D01*
X126906330Y-67658117D01*
X127078598Y-67732129D01*
X127089531Y-67735681D01*
X127272398Y-67777060D01*
X127283807Y-67778562D01*
X127471155Y-67785922D01*
X127482637Y-67785320D01*
X127570557Y-67772573D01*
X127640843Y-67782593D01*
X127694554Y-67829022D01*
X127714637Y-67897119D01*
X127694716Y-67965264D01*
X127677733Y-67986363D01*
X124441479Y-71222616D01*
X121560955Y-74103140D01*
X121498643Y-74137166D01*
X121488841Y-74138220D01*
X121488920Y-74138772D01*
X121429639Y-74147262D01*
X121359374Y-74137118D01*
X121305744Y-74090595D01*
X121285780Y-74022463D01*
X121287051Y-74004682D01*
X121295542Y-73945394D01*
X121297525Y-73945678D01*
X121314271Y-73888647D01*
X121331174Y-73867673D01*
X125272247Y-69926600D01*
X125280537Y-69919056D01*
X125287018Y-69914943D01*
X125333659Y-69865275D01*
X125336413Y-69862434D01*
X125356134Y-69842713D01*
X125358612Y-69839518D01*
X125366318Y-69830496D01*
X125391158Y-69804044D01*
X125396586Y-69798264D01*
X125406346Y-69780511D01*
X125417199Y-69763988D01*
X125424753Y-69754249D01*
X125429613Y-69747984D01*
X125447176Y-69707400D01*
X125452383Y-69696770D01*
X125473695Y-69658003D01*
X125475666Y-69650326D01*
X125475668Y-69650321D01*
X125478732Y-69638385D01*
X125485138Y-69619673D01*
X125490033Y-69608362D01*
X125493181Y-69601088D01*
X125494421Y-69593260D01*
X125494423Y-69593253D01*
X125500099Y-69557419D01*
X125502505Y-69545799D01*
X125511528Y-69510654D01*
X125511528Y-69510653D01*
X125513500Y-69502973D01*
X125513500Y-69482719D01*
X125515051Y-69463008D01*
X125516980Y-69450829D01*
X125518220Y-69443000D01*
X125514059Y-69398981D01*
X125513500Y-69387124D01*
X125513500Y-67641577D01*
X125533502Y-67573456D01*
X125558931Y-67544703D01*
X125644995Y-67473125D01*
X125645001Y-67473119D01*
X125649433Y-67469433D01*
X125768282Y-67326531D01*
X125773077Y-67320766D01*
X125773079Y-67320764D01*
X125776766Y-67316330D01*
X125874067Y-67142587D01*
X125927187Y-66986102D01*
X125936219Y-66959496D01*
X125936219Y-66959494D01*
X125938077Y-66954022D01*
X125940690Y-66936005D01*
X125957314Y-66821343D01*
X125966651Y-66756949D01*
X125968142Y-66700000D01*
X125966056Y-66677295D01*
X126333111Y-66677295D01*
X126345373Y-66864376D01*
X126347174Y-66875746D01*
X126393323Y-67057462D01*
X126397164Y-67068308D01*
X126475658Y-67238574D01*
X126481410Y-67248538D01*
X126483725Y-67251813D01*
X126494314Y-67260203D01*
X126507616Y-67253174D01*
X127047978Y-66712812D01*
X127055592Y-66698868D01*
X127055461Y-66697035D01*
X127051210Y-66690420D01*
X126507054Y-66146264D01*
X126494674Y-66139504D01*
X126488708Y-66143970D01*
X126417841Y-66278668D01*
X126413440Y-66289292D01*
X126357841Y-66468350D01*
X126355449Y-66479604D01*
X126333412Y-66665794D01*
X126333111Y-66677295D01*
X125966056Y-66677295D01*
X125949921Y-66501702D01*
X125943660Y-66479500D01*
X125897436Y-66315604D01*
X125897435Y-66315602D01*
X125895868Y-66310045D01*
X125885634Y-66289292D01*
X125810349Y-66136627D01*
X125810346Y-66136623D01*
X125807794Y-66131447D01*
X125764500Y-66073469D01*
X125692100Y-65976515D01*
X125688647Y-65971891D01*
X125542419Y-65836719D01*
X125537536Y-65833638D01*
X125447636Y-65776915D01*
X126861027Y-65776915D01*
X126864513Y-65785303D01*
X127407188Y-66327978D01*
X127421132Y-66335592D01*
X127422965Y-66335461D01*
X127429580Y-66331210D01*
X127972155Y-65788635D01*
X127978915Y-65776255D01*
X127972885Y-65768200D01*
X127918657Y-65733985D01*
X127908418Y-65728768D01*
X127734274Y-65659291D01*
X127723236Y-65656021D01*
X127539356Y-65619445D01*
X127527910Y-65618242D01*
X127340447Y-65615789D01*
X127328967Y-65616692D01*
X127144195Y-65648441D01*
X127133075Y-65651421D01*
X126957175Y-65716314D01*
X126946797Y-65721264D01*
X126870625Y-65766582D01*
X126861027Y-65776915D01*
X125447636Y-65776915D01*
X125378886Y-65733537D01*
X125374006Y-65730458D01*
X125189049Y-65656668D01*
X125183389Y-65655542D01*
X125183385Y-65655541D01*
X124999410Y-65618946D01*
X124999405Y-65618946D01*
X124993742Y-65617819D01*
X124987967Y-65617743D01*
X124987963Y-65617743D01*
X124890390Y-65616466D01*
X124794625Y-65615212D01*
X124598368Y-65648936D01*
X124411543Y-65717859D01*
X124406582Y-65720811D01*
X124406581Y-65720811D01*
X124326928Y-65768200D01*
X124240406Y-65819675D01*
X124090690Y-65950972D01*
X124087118Y-65955503D01*
X123991443Y-66076866D01*
X123967407Y-66107355D01*
X123874688Y-66283586D01*
X123815637Y-66473763D01*
X123792231Y-66671516D01*
X123805255Y-66870223D01*
X123854272Y-67063229D01*
X123937641Y-67244071D01*
X123944074Y-67253174D01*
X123988709Y-67316330D01*
X124052570Y-67406692D01*
X124195210Y-67545645D01*
X124199835Y-67548735D01*
X124240146Y-67607091D01*
X124246500Y-67646597D01*
X124246500Y-69108348D01*
X124226498Y-69176469D01*
X124209595Y-69197443D01*
X123148595Y-70258443D01*
X123086283Y-70292469D01*
X123015468Y-70287404D01*
X122958632Y-70244857D01*
X122933821Y-70178337D01*
X122933500Y-70169348D01*
X122933500Y-67674844D01*
X122953502Y-67606723D01*
X122978931Y-67577969D01*
X122984358Y-67573456D01*
X123109433Y-67469433D01*
X123228282Y-67326531D01*
X123233077Y-67320766D01*
X123233079Y-67320764D01*
X123236766Y-67316330D01*
X123334067Y-67142587D01*
X123387187Y-66986102D01*
X123396219Y-66959496D01*
X123396219Y-66959494D01*
X123398077Y-66954022D01*
X123400690Y-66936005D01*
X123417314Y-66821343D01*
X123426651Y-66756949D01*
X123428142Y-66700000D01*
X123409921Y-66501702D01*
X123403660Y-66479500D01*
X123357436Y-66315604D01*
X123357435Y-66315602D01*
X123355868Y-66310045D01*
X123345634Y-66289292D01*
X123270349Y-66136627D01*
X123270346Y-66136623D01*
X123267794Y-66131447D01*
X123224500Y-66073469D01*
X123152100Y-65976515D01*
X123148647Y-65971891D01*
X123002419Y-65836719D01*
X122997536Y-65833638D01*
X122838886Y-65733537D01*
X122834006Y-65730458D01*
X122649049Y-65656668D01*
X122643389Y-65655542D01*
X122643385Y-65655541D01*
X122459410Y-65618946D01*
X122459405Y-65618946D01*
X122453742Y-65617819D01*
X122447967Y-65617743D01*
X122447963Y-65617743D01*
X122350390Y-65616466D01*
X122254625Y-65615212D01*
X122058368Y-65648936D01*
X121871543Y-65717859D01*
X121866582Y-65720811D01*
X121866581Y-65720811D01*
X121786928Y-65768200D01*
X121700406Y-65819675D01*
X121550690Y-65950972D01*
X121547118Y-65955503D01*
X121451443Y-66076866D01*
X121427407Y-66107355D01*
X121334688Y-66283586D01*
X121275637Y-66473763D01*
X121252231Y-66671516D01*
X121265255Y-66870223D01*
X121314272Y-67063229D01*
X121397641Y-67244071D01*
X121404074Y-67253174D01*
X121448709Y-67316330D01*
X121512570Y-67406692D01*
X121516712Y-67410727D01*
X121628421Y-67519548D01*
X121663259Y-67581409D01*
X121666500Y-67609802D01*
X121666500Y-70385406D01*
X121646498Y-70453527D01*
X121629595Y-70474501D01*
X120548595Y-71555500D01*
X120486283Y-71589526D01*
X120415467Y-71584461D01*
X120358632Y-71541914D01*
X120333821Y-71475394D01*
X120333500Y-71466405D01*
X120333500Y-67906291D01*
X120353502Y-67838170D01*
X120407158Y-67791677D01*
X120445892Y-67781028D01*
X120460406Y-67779451D01*
X120485316Y-67776745D01*
X120621705Y-67725615D01*
X120738261Y-67638261D01*
X120825615Y-67521705D01*
X120876745Y-67385316D01*
X120883500Y-67323134D01*
X120883500Y-66076866D01*
X120876745Y-66014684D01*
X120825615Y-65878295D01*
X120738261Y-65761739D01*
X120621705Y-65674385D01*
X120485316Y-65623255D01*
X120423134Y-65616500D01*
X119176866Y-65616500D01*
X119114684Y-65623255D01*
X118978295Y-65674385D01*
X118861739Y-65761739D01*
X118774385Y-65878295D01*
X118723255Y-66014684D01*
X118716500Y-66076866D01*
X118716500Y-67323134D01*
X118723255Y-67385316D01*
X118774385Y-67521705D01*
X118861739Y-67638261D01*
X118978295Y-67725615D01*
X118986704Y-67728767D01*
X118994575Y-67733077D01*
X118993664Y-67734741D01*
X119041490Y-67770663D01*
X119066193Y-67837224D01*
X119066500Y-67846009D01*
X119066500Y-71822599D01*
X119046498Y-71890720D01*
X118992650Y-71937300D01*
X118956587Y-71953696D01*
X118956581Y-71953700D01*
X118949397Y-71956966D01*
X118943244Y-71961913D01*
X118943241Y-71961915D01*
X118917387Y-71982703D01*
X118900651Y-71996159D01*
X117989095Y-72907715D01*
X117926783Y-72941741D01*
X117855968Y-72936676D01*
X117810905Y-72907715D01*
X116899349Y-71996159D01*
X116882613Y-71982703D01*
X116856759Y-71961915D01*
X116856756Y-71961913D01*
X116850603Y-71956966D01*
X116718007Y-71896679D01*
X116712634Y-71895910D01*
X116654367Y-71858554D01*
X116624802Y-71794006D01*
X116623500Y-71775937D01*
X116623500Y-67641577D01*
X116643502Y-67573456D01*
X116668931Y-67544703D01*
X116754995Y-67473125D01*
X116755001Y-67473119D01*
X116759433Y-67469433D01*
X116878282Y-67326531D01*
X116883077Y-67320766D01*
X116883079Y-67320764D01*
X116886766Y-67316330D01*
X116984067Y-67142587D01*
X117037187Y-66986102D01*
X117046219Y-66959496D01*
X117046219Y-66959494D01*
X117048077Y-66954022D01*
X117050690Y-66936005D01*
X117067314Y-66821343D01*
X117076651Y-66756949D01*
X117078142Y-66700000D01*
X117059921Y-66501702D01*
X117053660Y-66479500D01*
X117007436Y-66315604D01*
X117007435Y-66315602D01*
X117005868Y-66310045D01*
X116995634Y-66289292D01*
X116920349Y-66136627D01*
X116920346Y-66136623D01*
X116917794Y-66131447D01*
X116874500Y-66073469D01*
X116802100Y-65976515D01*
X116798647Y-65971891D01*
X116652419Y-65836719D01*
X116647536Y-65833638D01*
X116488886Y-65733537D01*
X116484006Y-65730458D01*
X116299049Y-65656668D01*
X116293389Y-65655542D01*
X116293385Y-65655541D01*
X116109410Y-65618946D01*
X116109405Y-65618946D01*
X116103742Y-65617819D01*
X116097967Y-65617743D01*
X116097963Y-65617743D01*
X116000390Y-65616466D01*
X115904625Y-65615212D01*
X115708368Y-65648936D01*
X115521543Y-65717859D01*
X115516582Y-65720811D01*
X115516581Y-65720811D01*
X115436928Y-65768200D01*
X115350406Y-65819675D01*
X115200690Y-65950972D01*
X115197118Y-65955503D01*
X115101443Y-66076866D01*
X115077407Y-66107355D01*
X114984688Y-66283586D01*
X114925637Y-66473763D01*
X114902231Y-66671516D01*
X114915255Y-66870223D01*
X114964272Y-67063229D01*
X115047641Y-67244071D01*
X115054074Y-67253174D01*
X115098709Y-67316330D01*
X115162570Y-67406692D01*
X115305210Y-67545645D01*
X115309835Y-67548735D01*
X115350146Y-67607091D01*
X115356500Y-67646597D01*
X115356500Y-71527979D01*
X115336498Y-71596100D01*
X115282842Y-71642593D01*
X115212568Y-71652697D01*
X115147988Y-71623203D01*
X115141405Y-71617074D01*
X114120405Y-70596074D01*
X114086379Y-70533762D01*
X114083500Y-70506979D01*
X114083500Y-67641577D01*
X114103502Y-67573456D01*
X114128931Y-67544703D01*
X114214995Y-67473125D01*
X114215001Y-67473119D01*
X114219433Y-67469433D01*
X114338282Y-67326531D01*
X114343077Y-67320766D01*
X114343079Y-67320764D01*
X114346766Y-67316330D01*
X114444067Y-67142587D01*
X114497187Y-66986102D01*
X114506219Y-66959496D01*
X114506219Y-66959494D01*
X114508077Y-66954022D01*
X114510690Y-66936005D01*
X114527314Y-66821343D01*
X114536651Y-66756949D01*
X114538142Y-66700000D01*
X114519921Y-66501702D01*
X114513660Y-66479500D01*
X114467436Y-66315604D01*
X114467435Y-66315602D01*
X114465868Y-66310045D01*
X114455634Y-66289292D01*
X114380349Y-66136627D01*
X114380346Y-66136623D01*
X114377794Y-66131447D01*
X114334500Y-66073469D01*
X114262100Y-65976515D01*
X114258647Y-65971891D01*
X114112419Y-65836719D01*
X114107536Y-65833638D01*
X113948886Y-65733537D01*
X113944006Y-65730458D01*
X113759049Y-65656668D01*
X113753389Y-65655542D01*
X113753385Y-65655541D01*
X113569410Y-65618946D01*
X113569405Y-65618946D01*
X113563742Y-65617819D01*
X113557967Y-65617743D01*
X113557963Y-65617743D01*
X113460390Y-65616466D01*
X113364625Y-65615212D01*
X113168368Y-65648936D01*
X112981543Y-65717859D01*
X112976582Y-65720811D01*
X112976581Y-65720811D01*
X112896928Y-65768200D01*
X112810406Y-65819675D01*
X112660690Y-65950972D01*
X112657118Y-65955503D01*
X112561443Y-66076866D01*
X112537407Y-66107355D01*
X112444688Y-66283586D01*
X112385637Y-66473763D01*
X112362231Y-66671516D01*
X112375255Y-66870223D01*
X112424272Y-67063229D01*
X112507641Y-67244071D01*
X112514074Y-67253174D01*
X112558709Y-67316330D01*
X112622570Y-67406692D01*
X112765210Y-67545645D01*
X112769835Y-67548735D01*
X112810146Y-67607091D01*
X112816500Y-67646597D01*
X112816500Y-70016405D01*
X112796498Y-70084526D01*
X112742842Y-70131019D01*
X112672568Y-70141123D01*
X112607988Y-70111629D01*
X112601405Y-70105500D01*
X111580405Y-69084500D01*
X111546379Y-69022188D01*
X111543500Y-68995405D01*
X111543500Y-67641577D01*
X111563502Y-67573456D01*
X111588931Y-67544703D01*
X111674995Y-67473125D01*
X111675001Y-67473119D01*
X111679433Y-67469433D01*
X111798282Y-67326531D01*
X111803077Y-67320766D01*
X111803079Y-67320764D01*
X111806766Y-67316330D01*
X111904067Y-67142587D01*
X111957187Y-66986102D01*
X111966219Y-66959496D01*
X111966219Y-66959494D01*
X111968077Y-66954022D01*
X111970690Y-66936005D01*
X111987314Y-66821343D01*
X111996651Y-66756949D01*
X111998142Y-66700000D01*
X111979921Y-66501702D01*
X111973660Y-66479500D01*
X111927436Y-66315604D01*
X111927435Y-66315602D01*
X111925868Y-66310045D01*
X111915634Y-66289292D01*
X111840349Y-66136627D01*
X111840346Y-66136623D01*
X111837794Y-66131447D01*
X111794500Y-66073469D01*
X111722100Y-65976515D01*
X111718647Y-65971891D01*
X111572419Y-65836719D01*
X111567536Y-65833638D01*
X111408886Y-65733537D01*
X111404006Y-65730458D01*
X111219049Y-65656668D01*
X111213389Y-65655542D01*
X111213385Y-65655541D01*
X111029410Y-65618946D01*
X111029405Y-65618946D01*
X111023742Y-65617819D01*
X111017967Y-65617743D01*
X111017963Y-65617743D01*
X110920390Y-65616466D01*
X110824625Y-65615212D01*
X110628368Y-65648936D01*
X110441543Y-65717859D01*
X110436582Y-65720811D01*
X110436581Y-65720811D01*
X110356928Y-65768200D01*
X110270406Y-65819675D01*
X110120690Y-65950972D01*
X110117118Y-65955503D01*
X110021443Y-66076866D01*
X109997407Y-66107355D01*
X109904688Y-66283586D01*
X109845637Y-66473763D01*
X109822231Y-66671516D01*
X109835255Y-66870223D01*
X109884272Y-67063229D01*
X109967641Y-67244071D01*
X109974074Y-67253174D01*
X110018709Y-67316330D01*
X110082570Y-67406692D01*
X110225210Y-67545645D01*
X110229835Y-67548735D01*
X110270146Y-67607091D01*
X110276500Y-67646597D01*
X110276500Y-68710720D01*
X110256498Y-68778841D01*
X110202842Y-68825334D01*
X110132568Y-68835438D01*
X110067988Y-68805944D01*
X110061405Y-68799815D01*
X109040405Y-67778815D01*
X109006379Y-67716503D01*
X109003500Y-67689720D01*
X109003500Y-67641577D01*
X109023502Y-67573456D01*
X109048931Y-67544703D01*
X109134995Y-67473125D01*
X109135001Y-67473119D01*
X109139433Y-67469433D01*
X109258282Y-67326531D01*
X109263077Y-67320766D01*
X109263079Y-67320764D01*
X109266766Y-67316330D01*
X109364067Y-67142587D01*
X109417187Y-66986102D01*
X109426219Y-66959496D01*
X109426219Y-66959494D01*
X109428077Y-66954022D01*
X109430690Y-66936005D01*
X109447314Y-66821343D01*
X109456651Y-66756949D01*
X109458142Y-66700000D01*
X109439921Y-66501702D01*
X109433660Y-66479500D01*
X109387436Y-66315604D01*
X109387435Y-66315602D01*
X109385868Y-66310045D01*
X109375634Y-66289292D01*
X109300349Y-66136627D01*
X109300346Y-66136623D01*
X109297794Y-66131447D01*
X109254500Y-66073469D01*
X109182100Y-65976515D01*
X109178647Y-65971891D01*
X109032419Y-65836719D01*
X109027536Y-65833638D01*
X108868886Y-65733537D01*
X108864006Y-65730458D01*
X108679049Y-65656668D01*
X108673389Y-65655542D01*
X108673385Y-65655541D01*
X108489410Y-65618946D01*
X108489405Y-65618946D01*
X108483742Y-65617819D01*
X108477967Y-65617743D01*
X108477963Y-65617743D01*
X108380390Y-65616466D01*
X108284625Y-65615212D01*
X108088368Y-65648936D01*
X107901543Y-65717859D01*
X107896582Y-65720811D01*
X107896581Y-65720811D01*
X107816928Y-65768200D01*
X107730406Y-65819675D01*
X107580690Y-65950972D01*
X107577118Y-65955503D01*
X107481443Y-66076866D01*
X107457407Y-66107355D01*
X107364688Y-66283586D01*
X107305637Y-66473763D01*
X107282231Y-66671516D01*
X107282609Y-66677282D01*
X107294038Y-66851657D01*
X107278534Y-66920940D01*
X107228034Y-66970843D01*
X107158572Y-66985521D01*
X107092200Y-66960315D01*
X107079213Y-66948993D01*
X106954178Y-66823958D01*
X106920152Y-66761646D01*
X106917316Y-66731567D01*
X106918045Y-66703706D01*
X106918045Y-66703704D01*
X106918142Y-66700000D01*
X106899921Y-66501702D01*
X106893660Y-66479500D01*
X106847436Y-66315604D01*
X106847435Y-66315602D01*
X106845868Y-66310045D01*
X106835634Y-66289292D01*
X106760349Y-66136627D01*
X106760346Y-66136623D01*
X106757794Y-66131447D01*
X106714500Y-66073469D01*
X106642100Y-65976515D01*
X106638647Y-65971891D01*
X106492419Y-65836719D01*
X106487536Y-65833638D01*
X106328886Y-65733537D01*
X106324006Y-65730458D01*
X106139049Y-65656668D01*
X106133389Y-65655542D01*
X106133385Y-65655541D01*
X105949410Y-65618946D01*
X105949405Y-65618946D01*
X105943742Y-65617819D01*
X105937967Y-65617743D01*
X105937963Y-65617743D01*
X105840390Y-65616466D01*
X105744625Y-65615212D01*
X105548368Y-65648936D01*
X105361543Y-65717859D01*
X105356582Y-65720811D01*
X105356581Y-65720811D01*
X105276928Y-65768200D01*
X105190406Y-65819675D01*
X105040690Y-65950972D01*
X105037118Y-65955503D01*
X104941443Y-66076866D01*
X104917407Y-66107355D01*
X104824688Y-66283586D01*
X104765637Y-66473763D01*
X104742231Y-66671516D01*
X104755255Y-66870223D01*
X104757135Y-66877626D01*
X104774931Y-66947699D01*
X104772312Y-67018648D01*
X104731752Y-67076917D01*
X104666127Y-67104008D01*
X104596274Y-67091319D01*
X104563713Y-67067809D01*
X104405639Y-66909735D01*
X104371613Y-66847423D01*
X104370038Y-66802561D01*
X104376118Y-66760626D01*
X104376118Y-66760623D01*
X104376651Y-66756949D01*
X104378142Y-66700000D01*
X104359921Y-66501702D01*
X104353660Y-66479500D01*
X104307436Y-66315604D01*
X104307435Y-66315602D01*
X104305868Y-66310045D01*
X104295634Y-66289292D01*
X104220349Y-66136627D01*
X104220346Y-66136623D01*
X104217794Y-66131447D01*
X104174500Y-66073469D01*
X104102100Y-65976515D01*
X104098647Y-65971891D01*
X103952419Y-65836719D01*
X103947536Y-65833638D01*
X103788886Y-65733537D01*
X103784006Y-65730458D01*
X103599049Y-65656668D01*
X103593389Y-65655542D01*
X103593385Y-65655541D01*
X103409410Y-65618946D01*
X103409405Y-65618946D01*
X103403742Y-65617819D01*
X103397967Y-65617743D01*
X103397963Y-65617743D01*
X103300390Y-65616466D01*
X103204625Y-65615212D01*
X103008368Y-65648936D01*
X102821543Y-65717859D01*
X102816582Y-65720811D01*
X102816581Y-65720811D01*
X102736928Y-65768200D01*
X102650406Y-65819675D01*
X102500690Y-65950972D01*
X102497118Y-65955503D01*
X102401443Y-66076866D01*
X102377407Y-66107355D01*
X102284688Y-66283586D01*
X102225637Y-66473763D01*
X102202231Y-66671516D01*
X102215255Y-66870223D01*
X102264272Y-67063229D01*
X102266690Y-67068473D01*
X102266692Y-67068480D01*
X102315394Y-67174124D01*
X102325749Y-67244361D01*
X102296486Y-67309047D01*
X102236897Y-67347643D01*
X102165901Y-67347896D01*
X102111877Y-67315972D01*
X101845376Y-67049471D01*
X101811352Y-66987161D01*
X101809777Y-66942298D01*
X101819239Y-66877035D01*
X101836651Y-66756949D01*
X101838142Y-66700000D01*
X101819921Y-66501702D01*
X101813660Y-66479500D01*
X101767436Y-66315604D01*
X101767435Y-66315602D01*
X101765868Y-66310045D01*
X101755634Y-66289292D01*
X101680349Y-66136627D01*
X101680346Y-66136623D01*
X101677794Y-66131447D01*
X101634500Y-66073469D01*
X101562100Y-65976515D01*
X101558647Y-65971891D01*
X101412419Y-65836719D01*
X101407536Y-65833638D01*
X101248886Y-65733537D01*
X101244006Y-65730458D01*
X101059049Y-65656668D01*
X101053389Y-65655542D01*
X101053385Y-65655541D01*
X100869410Y-65618946D01*
X100869405Y-65618946D01*
X100863742Y-65617819D01*
X100857967Y-65617743D01*
X100857963Y-65617743D01*
X100760390Y-65616466D01*
X100664625Y-65615212D01*
X100468368Y-65648936D01*
X100281543Y-65717859D01*
X100276582Y-65720811D01*
X100276581Y-65720811D01*
X100196928Y-65768200D01*
X100110406Y-65819675D01*
X99960690Y-65950972D01*
X99957118Y-65955503D01*
X99861443Y-66076866D01*
X99837407Y-66107355D01*
X99744688Y-66283586D01*
X99685637Y-66473763D01*
X99662231Y-66671516D01*
X99675255Y-66870223D01*
X99676677Y-66875823D01*
X99676678Y-66875828D01*
X99701739Y-66974508D01*
X99699120Y-67045456D01*
X99658560Y-67103725D01*
X99592935Y-67130816D01*
X99523081Y-67118127D01*
X99490527Y-67094622D01*
X99330403Y-66934498D01*
X99296379Y-66872188D01*
X99293500Y-66845405D01*
X99293500Y-66076866D01*
X99286745Y-66014684D01*
X99235615Y-65878295D01*
X99148261Y-65761739D01*
X99031705Y-65674385D01*
X98895316Y-65623255D01*
X98833134Y-65616500D01*
X97586866Y-65616500D01*
X97524684Y-65623255D01*
X97388295Y-65674385D01*
X97271739Y-65761739D01*
X97184385Y-65878295D01*
X97133255Y-66014684D01*
X97126500Y-66076866D01*
X97126500Y-67323134D01*
X93408500Y-67323134D01*
X93408500Y-63534500D01*
X93428502Y-63466379D01*
X93482158Y-63419886D01*
X93534500Y-63408500D01*
X142265500Y-63408500D01*
X142333621Y-63428502D01*
G37*
%TD.AperFunction*%
%TD*%
M02*
