%TF.GenerationSoftware,KiCad,Pcbnew,(6.0.4)*%
%TF.CreationDate,2022-08-04T23:26:19+09:00*%
%TF.ProjectId,ATMega328_breakout,41544d65-6761-4333-9238-5f627265616b,rev?*%
%TF.SameCoordinates,Original*%
%TF.FileFunction,Legend,Bot*%
%TF.FilePolarity,Positive*%
%FSLAX46Y46*%
G04 Gerber Fmt 4.6, Leading zero omitted, Abs format (unit mm)*
G04 Created by KiCad (PCBNEW (6.0.4)) date 2022-08-04 23:26:19*
%MOMM*%
%LPD*%
G01*
G04 APERTURE LIST*
%ADD10C,0.150000*%
G04 APERTURE END LIST*
D10*
X132369047Y-91152380D02*
X132369047Y-91866666D01*
X132416666Y-92009523D01*
X132511904Y-92104761D01*
X132654761Y-92152380D01*
X132750000Y-92152380D01*
X131416666Y-92152380D02*
X131892857Y-92152380D01*
X131892857Y-91152380D01*
X130511904Y-92057142D02*
X130559523Y-92104761D01*
X130702380Y-92152380D01*
X130797619Y-92152380D01*
X130940476Y-92104761D01*
X131035714Y-92009523D01*
X131083333Y-91914285D01*
X131130952Y-91723809D01*
X131130952Y-91580952D01*
X131083333Y-91390476D01*
X131035714Y-91295238D01*
X130940476Y-91200000D01*
X130797619Y-91152380D01*
X130702380Y-91152380D01*
X130559523Y-91200000D01*
X130511904Y-91247619D01*
X129797619Y-91152380D02*
X129797619Y-91866666D01*
X129845238Y-92009523D01*
X129940476Y-92104761D01*
X130083333Y-92152380D01*
X130178571Y-92152380D01*
X128845238Y-92152380D02*
X129321428Y-92152380D01*
X129321428Y-91152380D01*
X127940476Y-92057142D02*
X127988095Y-92104761D01*
X128130952Y-92152380D01*
X128226190Y-92152380D01*
X128369047Y-92104761D01*
X128464285Y-92009523D01*
X128511904Y-91914285D01*
X128559523Y-91723809D01*
X128559523Y-91580952D01*
X128511904Y-91390476D01*
X128464285Y-91295238D01*
X128369047Y-91200000D01*
X128226190Y-91152380D01*
X128130952Y-91152380D01*
X127988095Y-91200000D01*
X127940476Y-91247619D01*
X127226190Y-91152380D02*
X127226190Y-91866666D01*
X127273809Y-92009523D01*
X127369047Y-92104761D01*
X127511904Y-92152380D01*
X127607142Y-92152380D01*
X126273809Y-92152380D02*
X126750000Y-92152380D01*
X126750000Y-91152380D01*
X125369047Y-92057142D02*
X125416666Y-92104761D01*
X125559523Y-92152380D01*
X125654761Y-92152380D01*
X125797619Y-92104761D01*
X125892857Y-92009523D01*
X125940476Y-91914285D01*
X125988095Y-91723809D01*
X125988095Y-91580952D01*
X125940476Y-91390476D01*
X125892857Y-91295238D01*
X125797619Y-91200000D01*
X125654761Y-91152380D01*
X125559523Y-91152380D01*
X125416666Y-91200000D01*
X125369047Y-91247619D01*
X124654761Y-91152380D02*
X124654761Y-91866666D01*
X124702380Y-92009523D01*
X124797619Y-92104761D01*
X124940476Y-92152380D01*
X125035714Y-92152380D01*
X123702380Y-92152380D02*
X124178571Y-92152380D01*
X124178571Y-91152380D01*
X122797619Y-92057142D02*
X122845238Y-92104761D01*
X122988095Y-92152380D01*
X123083333Y-92152380D01*
X123226190Y-92104761D01*
X123321428Y-92009523D01*
X123369047Y-91914285D01*
X123416666Y-91723809D01*
X123416666Y-91580952D01*
X123369047Y-91390476D01*
X123321428Y-91295238D01*
X123226190Y-91200000D01*
X123083333Y-91152380D01*
X122988095Y-91152380D01*
X122845238Y-91200000D01*
X122797619Y-91247619D01*
M02*
